<?xml version="1.0" encoding="UTF-8"?>
<svg id="a997016c-db65-4858-a20c-b74374785ce3" xmlns="http://www.w3.org/2000/svg" version="1.1" viewBox="0 0 3998.7 860.6">
  <!-- Generator: Adobe Illustrator 29.3.1, SVG Export Plug-In . SVG Version: 2.1.0 Build 151)  -->
  <defs>
    <style>
      .st0 {
        fill: #7f7f7f;
      }
    </style>
  </defs>
  <path class="st0" d="M1362.2,860.6h-271c-124.4,0-225.3-100.9-225.3-225.3V225.3C865.9,100.9,966.8,0,1091.2,0v134.9c-49.9,0-90.3,40.5-90.4,90.4v410c0,49.9,40.5,90.3,90.4,90.4h271c49.9,0,90.3-40.5,90.4-90.4V225.3c0-49.9-40.5-90.3-90.4-90.4V0c124.4,0,225.3,100.9,225.3,225.3v410c0,124.4-100.9,225.3-225.3,225.3h0Z"/>
  <path class="st0" d="M2636.5,0h271c124.4,0,225.3,100.9,225.3,225.3h0v410c0,124.4-100.9,225.3-225.3,225.3v-134.9c49.9,0,90.3-40.5,90.4-90.4V225.3c0-49.9-40.5-90.3-90.4-90.4h-271c-49.9,0-90.3,40.5-90.4,90.4v410c0,49.9,40.5,90.3,90.4,90.4v134.9c-124.4,0-225.3-100.9-225.3-225.3h0V225.3C2411.2,100.9,2512.1,0,2636.5,0c0,0,0,0,0,0Z"/>
  <g>
    <g>
      <path class="st0" d="M1935.9,725.7v134.9c-124.4,0-225.3-100.9-225.3-225.3h0V225.3c0-49.9-40.5-90.3-90.4-90.4V0c124.4,0,225.3,100.8,225.3,225.3h0v410c0,49.9,40.5,90.4,90.4,90.4Z"/>
      <path class="st0" d="M2157.2,725.7v134.9c-124.4,0-225.3-100.9-225.3-225.3h0V225.3c0-49.9-40.5-90.3-90.4-90.4V0c124.4,0,225.3,100.9,225.3,225.3v410c0,49.9,40.5,90.4,90.4,90.4Z"/>
    </g>
    <path class="st0" d="M2378.5,725.7v134.9c-124.4,0-225.3-100.9-225.3-225.3h0V225.3c0-49.9-40.5-90.3-90.4-90.4V0c124.4,0,225.3,100.9,225.3,225.3v410c0,49.9,40.5,90.4,90.4,90.4Z"/>
  </g>
  <path class="st0" d="M833.2,725.7v134.9c-107,0-193.7-86.7-193.7-193.7v-110.3c0-32.5-26.4-58.8-58.8-58.8H252.5c-32.4,0-58.7,26.4-58.8,58.8v110.3c0,32.5,26.4,58.8,58.8,58.8h326.3v134.9H252.6c-107,0-193.7-86.7-193.7-193.7v-110.3c-.1-46.3,16.5-91.2,46.8-126.2-30.3-35.1-47-79.9-46.8-126.3v-110.3c0-32.5-26.4-58.8-58.8-58.8V0c51.4-.1,100.7,20.3,137,56.7,36.4,36.2,56.9,85.6,56.7,137v110.3c0,32.5,26.4,58.8,58.8,58.8h328.1c32.4,0,58.7-26.4,58.8-58.8v-110.3c0-32.5-26.4-58.8-58.8-58.8H254.3V0h326.3c107,0,193.7,86.7,193.7,193.7h0v110.3c.1,46.3-16.5,91.2-46.8,126.2,30.3,35.1,47,79.9,46.8,126.3v110.3c0,32.5,26.4,58.8,58.8,58.8Z"/>
  <path class="st0" d="M3998.7,725.7v134.9c-107,0-193.7-86.7-193.7-193.7v-110.3c0-32.5-26.4-58.8-58.8-58.8h-328.1c-32.4,0-58.7,26.4-58.8,58.8v110.3c0,32.5,26.4,58.8,58.8,58.8h326.3v134.9h-326.3c-107,0-193.7-86.7-193.7-193.7v-110.3c-.1-46.3,16.5-91.2,46.8-126.2-30.3-35.1-47-79.9-46.8-126.3v-110.3c0-32.5-26.4-58.8-58.8-58.8V0c107,0,193.7,86.7,193.7,193.7v110.3c0,32.5,26.4,58.8,58.8,58.8h328.1c32.4,0,58.7-26.4,58.8-58.8v-110.3c0-32.5-26.4-58.8-58.8-58.8h-326.3V0h326.3c107,0,193.7,86.7,193.7,193.7h0v110.3c.1,46.3-16.5,91.2-46.8,126.2,30.3,35.1,47,79.9,46.8,126.3v110.3c0,32.5,26.4,58.8,58.8,58.8Z"/>
</svg>