<svg id="a77cae57-f1e0-490a-9298-2284623a797c" data-name="Layer 1" xmlns="http://www.w3.org/2000/svg" viewBox="0 0 302.25 122.2"><defs><style>.dd968100-ee7e-4217-b78f-779f0bbb9cce{fill:none;stroke:#fff;stroke-miterlimit:10;stroke-width:2.5px;}</style></defs><title>globe</title><path class="dd968100-ee7e-4217-b78f-779f0bbb9cce" d="M151.125,1.25C233.9,1.25,301,28.046,301,61.1s-67.1,59.85-149.875,59.85S1.25,94.154,1.25,61.1,68.351,1.25,151.125,1.25ZM151,.95l.125,120m-.025,0C84.771,120.95,31,94.154,31,61.1S84.771,1.25,151.1,1.25m-.033,119.7C106.847,120.95,71,94.154,71,61.1S106.847,1.25,151.067,1.25m-.034,119.7C128.924,120.95,111,94.154,111,61.1S128.924,1.25,151.033,1.25M1.25,61.075H301M21,90.95H281.25M21,30.95H281.25M150.9,1.25c66.329,0,120.1,26.8,120.1,59.85s-53.771,59.85-120.1,59.85m.033-119.7C195.153,1.25,231,28.046,231,61.1s-35.847,59.85-80.067,59.85m.034-119.7C173.076,1.25,191,28.046,191,61.1s-17.924,59.85-40.033,59.85"/></svg>