<svg id="0f040f76-e45c-408d-a353-8f318f1e7b72" data-name="3f11ac0d-08c7-4dfc-9103-8b1d62ec763a" xmlns="http://www.w3.org/2000/svg" viewBox="0 0 503.574 154.6"><defs><style>.\37 6fb5ffd-b783-46d3-96ea-5f135b53304c{fill:none;stroke:#fff;stroke-miterlimit:10;stroke-width:2.5px;}.c4a6e95c-107c-4aa3-849a-015a7fcac85e{fill:#fff;}</style></defs><title>logo</title><ellipse class="76fb5ffd-b783-46d3-96ea-5f135b53304c" cx="251.787" cy="77.3" rx="250.537" ry="76.05"/><path class="c4a6e95c-107c-4aa3-849a-015a7fcac85e" d="M66.481,92.36,54.16,58.9H71.383L77.9,79.769,83.794,58.9h17.762l5.891,20.91,6.206-20.91h16.053L117.25,92.36H97.959L92.068,72.619,86.222,92.36Z"/><path class="c4a6e95c-107c-4aa3-849a-015a7fcac85e" d="M145,66.5H130.479V58.9H145Zm0,25.856H130.479V68.168H145Z"/><path class="c4a6e95c-107c-4aa3-849a-015a7fcac85e" d="M162.229,92.36H147.7V58.9h14.525Z"/><path class="c4a6e95c-107c-4aa3-849a-015a7fcac85e" d="M179.453,92.36H164.929V58.9h14.524Z"/><path class="c4a6e95c-107c-4aa3-849a-015a7fcac85e" d="M211.068,92.36H195.914V58.9h34.041c8.364,0,13.58,2.383,13.58,8.5v.45c0,4.991-4.5,6.97-7.285,7.644,4.722.945,7.42,3.868,7.42,8.184v5.037a6.047,6.047,0,0,0,.629,3.372v.27H228.741c-.27-.27-.315-.674-.315-1.349v-4c0-3.6-1.709-5.711-6.611-5.711H211.068Zm0-19.875h13.446c2.518,0,3.417-1.035,3.417-2.429v-.045c0-1.394-.9-2.428-3.417-2.428H211.068Z"/><path class="c4a6e95c-107c-4aa3-849a-015a7fcac85e" d="M246.194,58.9h14.525V72.575c1.034-1.035,5.081-4.947,12.95-4.947h.27c9.668,0,11.916,5.846,11.916,8.948V92.36H271.331V81.208c0-2.743-1.259-5.036-5.171-5.036-3.732,0-5.441,2.338-5.441,5.126V92.36H246.194Z"/><path class="c4a6e95c-107c-4aa3-849a-015a7fcac85e" d="M287.75,80.489v-.72c0-4.631,2.248-12.276,19.336-12.276h3.6c17.583,0,19.291,7.645,19.291,12.276v.72c0,4.721-1.708,12.545-19.381,12.545h-3.462C289.953,93.034,287.75,85.21,287.75,80.489Zm14.749-.5v.045c0,2.383,1.124,5.711,6.295,5.711h.135c5.127,0,6.3-3.373,6.3-5.711v-.045c0-2.248-1.169-5.261-6.3-5.261h-.135c-5.126.005-6.294,2.972-6.294,5.266Z"/><path class="c4a6e95c-107c-4aa3-849a-015a7fcac85e" d="M371.934,58.9V92.36H357.455V89.033c-.99.944-4,3.642-11.377,3.642h-.945c-10.252,0-14.029-5.936-14.029-12.006v-1.08c0-5.8,3.507-11.736,13.715-11.736h.989c7.24,0,10.567,2.338,11.6,3.147V58.9Zm-14.524,21c0-2.2-1.709-4.856-5.981-4.856h-.18c-4.317,0-5.4,2.653-5.4,4.9v.225c0,2.338,1.259,5.171,5.4,5.171h.18c4.317,0,5.981-2.743,5.981-5.126Z"/><path class="c4a6e95c-107c-4aa3-849a-015a7fcac85e" d="M395.052,93.034h-2.158c-16.953,0-19.021-7.554-19.021-12.59v-.72c0-4.991,2.023-12.231,18.976-12.231h2.158c17.583,0,19.246,7.645,19.246,13.355v.945H388.172c.225,2.113,1.664,4.182,6.026,4.182,4.991,0,5.621-2.159,5.711-2.653h14.3v.045C414.208,86.829,412.275,93.034,395.052,93.034Zm-.989-19.246c-4.182,0-5.441,1.35-5.8,3.1H399.82C399.5,75.093,398.065,73.788,394.063,73.788Z"/><path class="c4a6e95c-107c-4aa3-849a-015a7fcac85e" d="M414.978,84.446v-.315h14.7c.045.989.539,2.608,3.732,2.608h.09c2.968,0,3.642-.854,3.642-1.8V84.9c0-1.079-.629-1.708-3.912-1.8l-5.936-.225c-9.757-.36-11.961-3.957-11.961-7.645v-.314c0-4.227,3.013-7.42,16.458-7.42H434.8c13.715,0,16.593,3.417,16.593,7.375v.359H437.058c-.046-.674-.315-1.978-3.643-1.978h-.09c-3.013,0-3.6.539-3.6,1.439v.045c0,.854.674,1.484,3.912,1.619l5.936.224c10.612.36,12.815,3.013,12.815,7.825v.36c0,4.361-2.473,8.273-17.492,8.273h-3.148C416.732,93.034,414.978,87.638,414.978,84.446Z"/></svg>