<svg xmlns="http://www.w3.org/2000/svg" viewBox="0 0 878.147 212.185"><defs><style>.a{fill:#1f1fa0;}.b{fill:#006440;}</style></defs><title>sacredware-logoArtboard 4 copy 4</title><path class="a" d="M266.959,48.34h-2.3c-1.407-11.187-2.814-16.98-5.885-22.972-4.221-8.789-10.874-13.982-17.526-13.982-8.316,0-14.456,7.99-14.456,18.577a22.819,22.819,0,0,0,4.349,13.583,56.518,56.518,0,0,0,7.676,8.789c2.175,2.2,4.862,4.594,7.292,6.792,12.154,10.986,17.143,16.778,20.853,24.17,3.2,6.192,5.245,15.78,5.245,23.77,0,21.574-12.537,38.153-28.912,38.153-5.629,0-9.851-1.2-18.294-5.194a10.392,10.392,0,0,0-3.582-1c-2.175,0-3.71,2-4.862,6.193h-2.3V99.477h2.3c1.28,8.989,2.431,13.982,4.734,19.975,4.349,11.186,11.769,17.777,20.213,17.777,8.955,0,16.119-8.988,16.119-20.574,0-5.992-1.535-11.186-4.989-16.978-2.559-4.2-8.316-10.587-16.12-17.979C225,71.111,221.032,66.317,217.578,59.326a45.51,45.51,0,0,1-4.094-19.576c0-21.174,11.258-36.954,26.482-36.954a24.52,24.52,0,0,1,11.9,3.4l5.757,3.2,2.175.6c2.3,0,3.838-2.2,4.861-6.991h2.3Z"/><path class="a" d="M341.8,126.843c-4.99,11.785-9.979,17.178-15.992,17.178-6.268,0-8.955-4.394-9.594-15.78-8.955,12.385-13.177,15.78-18.934,15.78-7.932,0-13.944-9.987-13.944-22.971,0-9.588,3.2-16.979,9.722-23.171A115.043,115.043,0,0,1,316.211,81.9V75.307c0-6.992-.512-11.586-1.408-14.383-1.663-4.594-4.221-6.991-7.931-6.991-5.117,0-8.444,4.994-8.444,12.585l.128,5.592c0,5.993-2.43,9.788-6.268,9.788s-6.525-4.195-6.525-10.387c0-13.383,10.363-23.571,24.179-23.571,8.827,0,15.1,3.8,17.91,10.987,1.663,3.995,2.175,7.79,2.175,15.98V120.65c0,7.192,1.151,10.387,3.71,10.387,1.663,0,2.942-1.2,5.245-4.993l1.024-1.6ZM316.211,88.49c-3.71,2.6-4.606,3.2-5.885,4a56.02,56.02,0,0,0-9.211,8.589,24.9,24.9,0,0,0-3.966,13.584c0,8.389,3.582,14.781,8.316,14.781,3.71,0,6.78-2.4,10.746-8.189Z"/><path class="a" d="M398.724,108.065c-3.965,24.571-12.281,36.956-24.818,36.956-15.863,0-26.993-19.376-26.993-47.342,0-29.364,12.281-49.739,30.063-49.739,6.141,0,11,2.4,15.224,7.591a22.371,22.371,0,0,1,5.373,13.983c0,6.192-2.687,9.987-6.908,9.987-4.606,0-8.06-4.794-8.06-11.186v-2c.128-7.19-3.07-11.185-8.315-11.185-8.188,0-13.689,13.183-13.689,32.959,0,22.572,7.548,38.352,18.422,38.352,7.8,0,13.561-6.591,17.4-19.975Z"/><path class="a" d="M427.891,69.713h.256c2.558-7.79,3.71-10.586,5.757-14.182,2.686-4.794,6.268-7.591,9.466-7.591,4.478,0,7.8,5,7.8,11.586,0,5.993-2.559,10.387-6.013,10.387a7.252,7.252,0,0,1-5.373-3c-2.558-2.6-2.686-2.8-3.582-2.8-2.686,0-5.117,3.995-8.315,13.184v45.943c0,11.187,2.431,15.581,8.315,15.381v3.6H406.015v-3.6c5.885.2,8.315-4.194,8.315-15.381V76.105c0-6.392-.256-8.389-1.279-10.787-1.023-2-2.431-3.395-3.966-3.395l-3.454,1-.767-3.4L425.076,47.94h2.815Z"/><path class="a" d="M505.545,110.063c-3.2,22.173-12.026,34.958-24.435,34.958-14.968,0-25.074-18.977-25.074-46.743,0-29.164,11.258-50.338,26.993-50.338,13.689,0,22.388,14.382,22.516,37.554H467.677c.64,24.369,8.572,41.149,19.19,41.149,7.292,0,12.665-5.793,16.631-17.978ZM490.961,78.5c-.256-13.983-4.35-22.773-11-22.773-3.71,0-7.292,3-9.211,7.791-1.535,4.195-2.3,7.99-2.943,14.982Z"/><path class="a" d="M559.786,145.021h-2.558V131.837c-7.548,10.387-11,13.184-17.655,13.184-13.816,0-23.922-19.376-23.922-45.745,0-27.765,12.665-51.336,27.888-51.336,5.885,0,8.827,1.6,13.689,7.391V30.162c0-7.591-.128-9.389-.768-11.586-.767-2.6-2.814-4.794-4.477-4.794-.9,0-1.408.2-3.454,1l-.768-3.2L568.358,0h2.814V118.652c.128,8.59,1.791,12.585,5.245,12.585a11.113,11.113,0,0,0,3.582-.8l.64,3Zm-2.558-59.727c0-10.587-.256-14.183-1.535-17.978-2.431-7.39-6.909-11.985-11.514-11.985-8.315,0-13.561,13.982-13.561,35.956,0,13.184,2.3,24.769,6.4,31.76,2.558,4.395,7.036,7.591,10.49,7.591,2.815,0,5.245-1.6,9.723-6.392Z"/><path class="a" d="M617.225,5.992v3.6c-4.989,0-7.8,3.2-7.8,8.589,0,2.4.255,4,1.535,10.187.767,4.2,1.151,5.993,1.407,6.991L628.1,102.273l13.049-55.931L636.8,28.764l-1.024-3.795c-2.686-10.987-5.373-14.582-11.258-15.381v-3.6h36.716v3.6c-3.454.2-4.477.6-5.885,2.2a11.978,11.978,0,0,0-2.942,8.39c0,3,.128,4.194,1.791,11.185.384,1.8.64,3,1.151,5.394.384,1.6.512,2.2.512,2.2l15.608,63.322,14.583-64.52,1.28-5.593c1.407-6.392,2.047-10.388,2.047-13.183,0-6.592-2.687-9.389-9.083-9.389v-3.6h25.458v3.6c-2.559.2-3.838.8-5.118,2.6-2.558,3.395-4.861,9.987-7.036,19.775l-.767,3.395L667.758,145.22h-2.431L644.091,58.927,624.006,145.22h-2.3L593.43,25.568l-.895-3.8c-2.3-9.587-4.222-11.785-10.746-12.184v-3.6Z"/><path class="a" d="M751.934,126.843c-4.989,11.785-9.978,17.178-15.991,17.178-6.268,0-8.955-4.394-9.6-15.78-8.955,12.385-13.176,15.78-18.933,15.78-7.932,0-13.945-9.987-13.945-22.971,0-9.588,3.2-16.979,9.723-23.171A115.062,115.062,0,0,1,726.348,81.9V75.307c0-6.992-.511-11.586-1.407-14.383-1.663-4.594-4.222-6.991-7.931-6.991-5.118,0-8.444,4.994-8.444,12.585l.128,5.592c0,5.993-2.431,9.788-6.268,9.788S695.9,77.7,695.9,71.511c0-13.383,10.362-23.571,24.179-23.571,8.827,0,15.1,3.8,17.91,10.987,1.663,3.995,2.175,7.79,2.175,15.98V120.65c0,7.192,1.151,10.387,3.71,10.387,1.663,0,2.942-1.2,5.245-4.993l1.023-1.6ZM726.348,88.49c-3.71,2.6-4.6,3.2-5.884,4a56.02,56.02,0,0,0-9.211,8.589,24.9,24.9,0,0,0-3.966,13.584c0,8.389,3.582,14.781,8.315,14.781,3.71,0,6.781-2.4,10.746-8.189Z"/><path class="a" d="M776.752,69.713h.256c2.558-7.79,3.71-10.586,5.756-14.182,2.687-4.794,6.269-7.591,9.467-7.591,4.478,0,7.8,5,7.8,11.586,0,5.993-2.559,10.387-6.013,10.387a7.252,7.252,0,0,1-5.373-3c-2.558-2.6-2.686-2.8-3.582-2.8-2.686,0-5.117,3.995-8.315,13.184v45.943c0,11.187,2.43,15.581,8.315,15.381v3.6H754.876v-3.6c5.884.2,8.315-4.194,8.315-15.381V76.105c0-6.392-.256-8.389-1.279-10.787-1.024-2-2.431-3.395-3.966-3.395l-3.454,1-.768-3.4L773.937,47.94h2.815Z"/><path class="a" d="M854.405,110.063c-3.2,22.173-12.025,34.958-24.435,34.958-14.967,0-25.074-18.977-25.074-46.743,0-29.164,11.258-50.338,26.993-50.338,13.689,0,22.388,14.382,22.516,37.554H816.538c.639,24.369,8.571,41.149,19.189,41.149,7.292,0,12.665-5.793,16.631-17.978ZM839.821,78.5c-.256-13.983-4.35-22.773-11-22.773-3.71,0-7.292,3-9.211,7.791-1.535,4.195-2.3,7.99-2.942,14.982Z"/><path class="b" d="M197.448,52.347a104.367,104.367,0,0,1-94.266,96.269c.223-.267.447-.533.66-.81a107.555,107.555,0,0,0,24.285-61.864c1.034-1.118,2.088-2.226,3.164-3.291a103.488,103.488,0,0,1,27.428-19.706c.351-.191.713-.372,1.107-.554.331-.17.672-.33,1.012-.479l.043-.011A103.778,103.778,0,0,1,197.448,52.347Z"/><path class="b" d="M94.266,148.616A104.392,104.392,0,0,1,0,52.347a104.139,104.139,0,0,1,36.62,9.565c.341.149.682.309,1.044.5.362.16.724.341,1.1.543A103.663,103.663,0,0,1,66.167,82.651c1.215,1.214,2.227,2.269,3.153,3.291a107.645,107.645,0,0,0,24.286,61.853C93.819,148.073,94.042,148.349,94.266,148.616Z"/><path class="b" d="M74.976,43.922a108.256,108.256,0,0,0-5.869,35.256v.458a108.332,108.332,0,0,0-29-20.706,103.846,103.846,0,0,1,5.2-37.323A103.383,103.383,0,0,1,74.976,43.922Z"/><path class="b" d="M157.355,58.93a108.332,108.332,0,0,0-29,20.706v-.458a108.229,108.229,0,0,0-5.869-35.256,103.4,103.4,0,0,1,29.675-22.315A103.846,103.846,0,0,1,157.355,58.93Z"/><path class="b" d="M124.091,78.987c0,1.746-.054,3.589-.15,5.5-.01.373-.032.745-.064,1.118l-.031.575c-.032.554-.086,1.119-.139,1.673l-.011.117a103.587,103.587,0,0,1-23.135,57.028c-.415.543-.863,1.076-1.352,1.63l-.182.213c-.053.074-.117.138-.17.2l-.106.117c0,.011-.011.022-.022.032-.01-.01-.021-.021-.021-.032l-.085-.085-.192-.224-.2-.244c-.32-.363-.629-.746-.938-1.108l-.415-.49A103.772,103.772,0,0,1,73.762,87.944c-.053-.585-.107-1.182-.149-1.746l-.032-.586c-.032-.384-.053-.756-.064-1.151-.1-1.885-.149-3.717-.149-5.474a104.244,104.244,0,0,1,5.464-33.361c.128-.394.266-.767.405-1.172.1-.277.192-.543.287-.809l.107-.3A103.976,103.976,0,0,1,98.729,10.8a103.938,103.938,0,0,1,19.1,32.551l.107.3c.1.266.192.532.3.841.128.373.266.746.394,1.161A103.694,103.694,0,0,1,124.091,78.987Z"/><path class="a" d="M878.147,48.02a11.179,11.179,0,1,1-11.2-11.2A11.175,11.175,0,0,1,878.147,48.02Zm-21.2,0a10,10,0,1,0,10-10A9.971,9.971,0,0,0,856.947,48.02Zm15.563-2.687h-.6a4.276,4.276,0,0,0-4.33-3.583c-2.836,0-4.591,2.276-4.591,5.972,0,2.313.523,3.956,1.531,4.964a4.53,4.53,0,0,0,3.135,1.231,5.42,5.42,0,0,0,4.478-2.389l.3.709a6.713,6.713,0,0,1-5.561,2.613,6.631,6.631,0,0,1-6.942-6.718,7.067,7.067,0,0,1,7.39-7.091,7.8,7.8,0,0,1,3.023.6,1.994,1.994,0,0,0,.672.149c.373,0,.56-.186.709-.746h.635Z"/><path class="a" d="M212.372,183.281c6.619-1.387,13.1-2.612,19.66-3.766,6.534-1.221,13.088-2.238,19.636-3.312,6.542-1.113,13.108-2.026,19.668-2.983s13.115-1.949,19.695-2.735l19.718-2.508c3.283-.444,6.579-.772,9.871-1.133l9.878-1.07,19.755-2.118L370.04,161.9l19.786-1.731,19.813-1.353,19.811-1.352c3.3-.257,6.608-.369,9.913-.534l9.917-.466,19.831-.933,9.915-.466c3.3-.158,6.614-.185,9.921-.284l39.686-.987c1.653-.033,3.306-.1,4.96-.1l4.962-.009,9.924-.017,19.845-.035,19.842-.034,19.839.431,39.669.888,39.632,1.875,19.812.943c3.3.121,6.6.393,9.9.635l9.89.731,39.557,2.924,9.887.731,9.866.994,19.729,2,39.45,4-39.507-3.382-19.75-1.69-9.874-.838-9.895-.575-39.573-2.3L716.9,160.4c-3.3-.19-6.593-.41-9.9-.478l-19.808-.63-39.608-1.249-39.624-.262-19.808-.119L568.352,158l-19.8.347-9.9.173-4.95.087c-1.65.032-3.3.124-4.948.183L489.175,160.4c-3.3.151-6.6.23-9.89.44l-9.881.621-19.76,1.241-9.879.62c-3.292.217-6.588.38-9.874.688l-19.725,1.66-19.723,1.659-19.685,2.036-19.68,2.058-19.636,2.419-9.815,1.22c-3.271.411-6.546.788-9.805,1.282l-19.575,2.8c-6.533.885-13.03,1.982-19.535,3.027s-13.014,2.063-19.484,3.271c-6.478,1.167-12.97,2.279-19.409,3.588-6.443,1.238-12.926,2.572-19.223,3.994Z"/><path class="a" d="M553.177,199.08l3.689-17.185H550.6l.569-2.829h15.687l-.569,2.829h-6.269l-3.676,17.185Z"/><path class="a" d="M578.231,199.08H565.5l4.257-20.014h12.72l-.569,2.829h-9.57l-1.263,5.659h9.072l-.556,2.691h-9.057l-1.331,6.006h9.584Z"/><path class="a" d="M598.264,185.584c-.181-2.468-2.081-4.077-4.869-4.077-4.105,0-7.3,4.133-7.3,9.528,0,3.455,1.956,5.618,5.063,5.618a5.5,5.5,0,0,0,5.4-3.342h3.176c-.957,3.842-4.355,6.255-8.877,6.255-4.786,0-7.962-3.26-7.962-8.253,0-7.379,4.55-12.733,10.722-12.733,4.425,0,7.74,2.912,7.74,6.8a2.232,2.232,0,0,1-.014.306H598.25C598.264,185.668,598.264,185.64,598.264,185.584Z"/><path class="a" d="M614.953,199.08l1.9-8.78H606.617l-1.886,8.78H601.6l4.258-20.014H609l-1.8,8.405h10.222l1.8-8.405h3.163L618.13,199.08Z"/><path class="a" d="M622.266,199.08l4.258-20.014h2.719l7.129,14.633h.236l3.176-14.633h3.093l-4.258,20.014h-2.746l-7.13-14.577h-.235l-3.163,14.577Z"/><path class="a" d="M643.852,191.188c0-7.31,4.646-12.608,10.874-12.608a8,8,0,0,1,8.266,8.377c0,7.366-4.6,12.609-10.832,12.609A8.054,8.054,0,0,1,643.852,191.188Zm3.231-.249c0,3.412,2.109,5.7,5.271,5.7,4.244,0,7.407-4.008,7.407-9.418,0-3.412-2.109-5.7-5.215-5.7C650.315,181.521,647.083,185.6,647.083,190.939Z"/><path class="a" d="M676.492,199.08H664l4.258-20.014H671.4l-3.689,17.157h9.362Z"/><path class="a" d="M680.047,191.188c0-7.31,4.647-12.608,10.875-12.608a8,8,0,0,1,8.266,8.377c0,7.366-4.6,12.609-10.832,12.609A8.055,8.055,0,0,1,680.047,191.188Zm3.232-.249c0,3.412,2.108,5.7,5.271,5.7,4.244,0,7.407-4.008,7.407-9.418,0-3.412-2.109-5.7-5.216-5.7C686.511,181.521,683.279,185.6,683.279,190.939Z"/><path class="a" d="M718.929,191.368c-1.1,5.34-4.438,8.2-9.5,8.2-4.868,0-8.128-3.329-8.128-8.35,0-7.351,4.494-12.636,10.694-12.636,4.258,0,7.532,2.691,7.74,6.353a4.153,4.153,0,0,1,.014.485h-3.094c-.166-2.358-2.094-3.911-4.882-3.911-4.133,0-7.268,4.05-7.268,9.432,0,3.522,2.025,5.7,5.3,5.7a5.853,5.853,0,0,0,5.923-4.73l.125-.583h-5.091l.541-2.607h8.184Z"/><path class="a" d="M720.694,199.08l4.258-20.014H728.1l-4.259,20.014Z"/><path class="a" d="M740.715,199.08H727.982l4.258-20.014h12.719l-.569,2.829h-9.57l-1.262,5.659h9.071l-.555,2.691h-9.057l-1.332,6.006h9.585Z"/><path class="a" d="M747.363,193.463c.4,2.039,2.3,3.343,4.813,3.343,2.58,0,4.328-1.263,4.328-3.135,0-1.442-.971-2.345-3.413-3.148l-1.969-.666c-2.8-.944-4.425-2.858-4.425-5.284,0-3.441,3.135-5.993,7.351-5.993,4.023,0,6.991,2.469,7.241,5.993h-3.038a4.111,4.111,0,0,0-4.355-3.247c-2.288,0-3.981,1.235-3.981,2.914,0,1.275.944,2.218,3.024,2.926l1.9.652c3.329,1.137,4.882,2.843,4.882,5.423,0,3.773-3.176,6.325-7.795,6.325-4.258,0-7.2-2.3-7.628-6.1Z"/><path class="a" d="M759.878,204.31l3.052-8.226h3.12l-4.008,8.226Z"/><path class="a" d="M776.577,199.08l4.258-20.014h3.149l-4.259,20.014Z"/><path class="a" d="M783.865,199.08l4.258-20.014h2.718l7.13,14.633h.236l3.176-14.633h3.093l-4.258,20.014h-2.747L790.342,184.5h-.235l-3.163,14.577Z"/><path class="a" d="M820.805,185.584c-.181-2.468-2.081-4.077-4.869-4.077-4.105,0-7.3,4.133-7.3,9.528,0,3.455,1.956,5.618,5.063,5.618a5.5,5.5,0,0,0,5.4-3.342h3.176c-.957,3.842-4.355,6.255-8.877,6.255-4.786,0-7.962-3.26-7.962-8.253,0-7.379,4.55-12.733,10.722-12.733,4.425,0,7.74,2.912,7.74,6.8a2.232,2.232,0,0,1-.014.306h-3.093C820.805,185.668,820.805,185.64,820.805,185.584Z"/><path class="a" d="M824.165,197.291a2.041,2.041,0,0,1,2.039-2.108,2.067,2.067,0,1,1-2.039,2.108Z"/></svg>