<svg xmlns="http://www.w3.org/2000/svg" viewBox="0 0 495.158 56.961"><defs><style>.a{fill:#fff;}</style></defs><title>scicon_type</title><path class="a" d="M36.241,38.1c0,9.506-5.57,18.863-17.155,18.863C7.353,56.961,0,47.083,0,28.518,0,11.14,6.461.074,19.086.074c11.585,0,17.229,9.654,17.155,20.052h-5.5c-.148-7.2-2.97-14.854-11.362-14.854-9.58,0-13.665,9.283-13.665,23.765,0,15.6,5.792,22.725,13.665,22.725,8.466,0,11.065-7.055,11.362-13.664Z"/><path class="a" d="M41.146,28.443C41.146,12.328,47.978.074,61.123.074,74.342.074,81.1,12.328,81.1,28.518c0,14.11-5.57,28.443-19.977,28.443-13.145,0-19.978-12.254-19.978-28.443Zm5.719.148c0,15,5.421,23.318,14.259,23.318s14.333-8.317,14.333-23.393S69.96,5.124,61.123,5.124,46.864,13.441,46.864,28.518Z"/><path class="a" d="M118.013,46.86V1.04h5.05V56h-6.238L94.1,9.061V56H89.05V1.04h6.684Z"/><path class="a" d="M136.286,40.845c.668,8.541,5.718,11.215,9.877,11.215,5.867,0,10.4-3.937,10.4-10.694,0-8.095-6.833-9.8-12.254-11.659-4.679-1.56-12.476-4.382-12.55-14.259C131.756,5.793,137.7,0,146.238,0c8.169,0,13.442,4.233,14.7,13.962H155.6c-.52-4.085-2.451-9.209-9.209-9.209-5.57,0-8.986,4.01-8.986,9.729,0,7.2,5.5,8.838,12.55,11.214,4.233,1.411,12.254,4.456,12.254,15.373,0,9.729-6.981,15.893-15.893,15.893-8.615,0-15.15-5.2-15.447-16.116Z"/><path class="a" d="M203.87,38.1c0,9.506-5.57,18.863-17.155,18.863-11.734,0-19.086-9.878-19.086-28.443,0-17.378,6.461-28.443,19.086-28.443,11.585,0,17.229,9.654,17.155,20.052h-5.5c-.148-7.2-2.97-14.854-11.362-14.854-9.58,0-13.665,9.283-13.665,23.765,0,15.6,5.792,22.725,13.665,22.725,8.466,0,11.065-7.055,11.362-13.664Z"/><path class="a" d="M211,1.04h5.57V56H211Z"/><path class="a" d="M224.37,28.443C224.37,12.328,231.2.074,244.348.074c13.219,0,19.977,12.254,19.977,28.443,0,14.11-5.57,28.443-19.977,28.443-13.145,0-19.978-12.254-19.978-28.443Zm5.719.148c0,15,5.421,23.318,14.259,23.318s14.333-8.317,14.333-23.393-5.5-23.394-14.333-23.394-14.259,8.317-14.259,23.394Z"/><path class="a" d="M277.474,1.04v40.1c0,3.193.445,6.015,2.747,8.243,1.856,1.856,4.679,2.45,7.427,2.45s5.569-.594,7.5-2.45c2.3-2.229,2.747-5.05,2.747-8.243V1.04h5.57V41.514c0,5.2-1.188,8.614-3.862,11.288-2.6,2.674-6.535,4.159-11.882,4.159-5.421,0-9.357-1.485-12.031-4.159-2.6-2.674-3.787-6.09-3.787-11.288V1.04Z"/><path class="a" d="M316.317,40.845c.669,8.541,5.719,11.215,9.877,11.215,5.867,0,10.4-3.937,10.4-10.694,0-8.095-6.832-9.8-12.254-11.659-4.679-1.56-12.477-4.382-12.551-14.259C311.787,5.793,317.728,0,326.268,0c8.17,0,13.442,4.233,14.705,13.962h-5.348c-.52-4.085-2.45-9.209-9.209-9.209-5.569,0-8.985,4.01-8.985,9.729,0,7.2,5.5,8.838,12.551,11.214,4.232,1.411,12.253,4.456,12.253,15.373,0,9.729-6.98,15.893-15.893,15.893-8.614,0-15.149-5.2-15.446-16.116Z"/><path class="a" d="M379,46.86V1.04h5.05V56h-6.238L355.085,9.061V56h-5.05V1.04h6.684Z"/><path class="a" d="M394.375,1.04h25.771V6.164h-20.2v19.16h20.2v5.124h-20.2V50.871h20.2V56H394.375Z"/><path class="a" d="M432.55,40.845c.669,8.541,5.719,11.215,9.877,11.215,5.867,0,10.4-3.937,10.4-10.694,0-8.095-6.832-9.8-12.254-11.659-4.679-1.56-12.477-4.382-12.551-14.259C428.02,5.793,433.961,0,442.5,0c8.17,0,13.442,4.233,14.705,13.962h-5.348c-.52-4.085-2.45-9.209-9.209-9.209-5.569,0-8.985,4.01-8.985,9.729,0,7.2,5.5,8.838,12.551,11.214,4.232,1.411,12.253,4.456,12.253,15.373,0,9.729-6.98,15.893-15.893,15.893-8.614,0-15.149-5.2-15.446-16.116Z"/><path class="a" d="M469.24,40.845c.669,8.541,5.719,11.215,9.877,11.215,5.867,0,10.4-3.937,10.4-10.694,0-8.095-6.832-9.8-12.254-11.659-4.679-1.56-12.477-4.382-12.551-14.259C464.709,5.793,470.651,0,479.191,0c8.17,0,13.442,4.233,14.705,13.962h-5.348c-.52-4.085-2.45-9.209-9.209-9.209-5.569,0-8.985,4.01-8.985,9.729,0,7.2,5.5,8.838,12.551,11.214,4.232,1.411,12.253,4.456,12.253,15.373,0,9.729-6.98,15.893-15.893,15.893-8.614,0-15.149-5.2-15.446-16.116Z"/></svg>