<svg xmlns="http://www.w3.org/2000/svg" viewBox="0 0 454.461 56.887"><defs><style>.a{fill:#fff;}</style></defs><title>scicon_type</title><path class="a" d="M5.718,55.921H0L15.67.966h5.5L37.058,55.921H31.414L26.735,39.658H10.249ZM18.492,8.169,11.734,34.608H25.25Z"/><path class="a" d="M41.888.966H52.36c8.169,0,11.437,1.485,13.59,3.268,3.49,2.97,5.718,7.5,5.718,13.293a18.7,18.7,0,0,1-2.451,9.951,13.337,13.337,0,0,1-9.506,6.312L70.7,55.921H64.465L52.211,30.375a16.167,16.167,0,0,0,1.931-.074c3.788-.074,6.461-.966,8.615-2.971,2.3-2.228,3.193-5.57,3.193-9.283,0-3.564-.891-7.649-4.159-10.1-2.376-1.782-6.164-1.856-9.58-1.856H47.458V55.921h-5.57Z"/><path class="a" d="M79.4.966h25.77V6.09h-20.2V25.25h20.2v5.125h-20.2V50.8h20.2v5.124H79.4Z"/><path class="a" d="M125.147.966h5.5L141.411,47.53,151.288.966h5.644L166.81,47.53,177.429.966h5.421L169.78,55.921h-5.793L153.962,8.615l-9.8,47.307h-5.792Z"/><path class="a" d="M188.277.966h25.77V6.09h-20.2V25.25h20.2v5.125h-20.2V50.8h20.2v5.124h-25.77Z"/><path class="a" d="M239,55.921h-5.719L248.956.966h5.5l15.893,54.956H264.7l-4.679-16.264H243.534ZM251.778,8.169l-6.759,26.438h13.517Z"/><path class="a" d="M275.4.966h5.57V50.8h17.526v5.124H275.4Z"/><path class="a" d="M299.61,28.369C299.61,12.254,306.442,0,319.586,0c13.22,0,19.978,12.254,19.978,28.443,0,14.111-5.57,28.444-19.978,28.444-13.145,0-19.977-12.254-19.977-28.444Zm5.718.148c0,15,5.422,23.319,14.259,23.319s14.333-8.317,14.333-23.393S328.424,5.05,319.586,5.05s-14.259,8.317-14.259,23.393Z"/><path class="a" d="M376.477,46.787V.966h5.05V55.921h-6.238L352.563,8.986V55.921h-5.05V.966H354.2Z"/><path class="a" d="M391.853.966h25.771V6.09h-20.2V25.25h20.2v5.125h-20.2V50.8h20.2v5.124H391.853Z"/><path class="a" d="M436.563,42.628c.074-5.2-.148-9.877,4.753-15.521,3.49-4.01,7.427-6.758,7.5-11.808.074-5.57-3.713-9.952-9.209-9.952-4.158,0-8.688,2.228-9.357,8.912a18.792,18.792,0,0,0-.074,2.08h-5.569c0-.743,0-1.485.074-2.228C425.5,3.936,432.924,0,439.682,0c7.872,0,14.779,6.313,14.779,15.6,0,6.016-3.862,9.952-7.353,13.516-5.347,5.421-5.124,8.317-5.124,13.517Zm5.422,13.293h-5.422V47.975h5.422Z"/></svg>