<svg xmlns="http://www.w3.org/2000/svg" viewBox="0 0 377.813 54.956"><defs><style>.a{fill:#fff;}</style></defs><title>scicon_type</title><path class="a" d="M0,0H12.625C19.978,0,26.438,1.856,30.6,7.946c3.045,4.456,4.827,10.917,4.827,19.531,0,21.018-10.249,27.479-22.651,27.479H0ZM5.57,49.832h6.758c12.922,0,17.452-8.243,17.452-22.354,0-7.648-1.188-13.145-3.862-16.783-2.748-3.862-7.2-5.57-13.739-5.57H5.57Z"/><path class="a" d="M41.814,54.956H36.1L51.766,0h5.5L73.154,54.956H67.51L62.832,38.692H46.345ZM54.588,7.2,47.83,33.643H61.346Z"/><path class="a" d="M77.984,0H88.456c8.169,0,11.437,1.485,13.59,3.268,3.49,2.971,5.718,7.5,5.718,13.294a18.7,18.7,0,0,1-2.451,9.951,13.338,13.338,0,0,1-9.506,6.312L106.8,54.956h-6.238L88.307,29.409a16.167,16.167,0,0,0,1.931-.074c3.788-.074,6.461-.966,8.615-2.971,2.3-2.229,3.193-5.57,3.193-9.283,0-3.564-.891-7.649-4.159-10.1-2.376-1.782-6.164-1.856-9.58-1.856H83.554V54.956h-5.57Z"/><path class="a" d="M115.269,0h5.57V26.587L138.068,0h6.313L126.334,27.181l19.458,27.775h-6.61L120.839,28.443V54.956h-5.57Z"/><path class="a" d="M167.778,54.956V0h8.615l12.922,46.861L201.346,0h8.688V54.956h-5.05V5.124l-13,49.832h-5.2L172.828,5.124V54.956Z"/><path class="a" d="M220.733,54.956h-5.719L230.685,0h5.5l15.893,54.956h-5.644L241.75,38.692H225.263ZM233.507,7.2l-6.759,26.438h13.517Z"/><path class="a" d="M259.131,5.124h-11.14V0H275.84V5.124H264.7V54.956h-5.569Z"/><path class="a" d="M289.73,5.124h-11.14V0h27.849V5.124H295.3V54.956H289.73Z"/><path class="a" d="M312.977,0h25.771V5.124h-20.2v19.16h20.2v5.125h-20.2V49.832h20.2v5.124H312.977Z"/><path class="a" d="M348.032,0H358.5c8.169,0,11.437,1.485,13.59,3.268,3.491,2.971,5.719,7.5,5.719,13.294a18.688,18.688,0,0,1-2.451,9.951,13.336,13.336,0,0,1-9.506,6.312l10.991,22.131h-6.238L358.355,29.409a16.167,16.167,0,0,0,1.931-.074c3.787-.074,6.461-.966,8.614-2.971,2.3-2.229,3.193-5.57,3.193-9.283,0-3.564-.891-7.649-4.158-10.1-2.377-1.782-6.164-1.856-9.58-1.856H353.6V54.956h-5.57Z"/></svg>