<svg xmlns="http://www.w3.org/2000/svg" xmlns:xlink="http://www.w3.org/1999/xlink" viewBox="0 0 931.9 1036.3" preserveAspectRatio="all"><defs><style>.a{fill:url(#a);}.b{fill:blue;}.c{fill:none;stroke:#fff;stroke-linecap:round;stroke-linejoin:round;stroke-width:2px;}</style><linearGradient id="a" x1="465.954" y1="1035.297" x2="465.954" y2="0.997" gradientUnits="userSpaceOnUse"><stop offset="0" stop-color="#fff"/><stop offset="0.085" stop-color="#f6f6ff"/><stop offset="0.225" stop-color="#ddf"/><stop offset="0.403" stop-color="#b4b4ff"/><stop offset="0.613" stop-color="#7b7bff"/><stop offset="0.845" stop-color="#33f"/><stop offset="1" stop-color="blue"/></linearGradient></defs><title>gate</title><path class="a" d="M924.134,580.837a818.263,818.263,0,0,0-46.1-177.76q-11.265-29.28-24.6-56.97c-27.89-57.9-62.47-110.37-103.23-156.57q-14.775-16.74-30.6-32.36c-61.97-61.12-135.87-109.06-220.23-142.81L465.954,1l-33.43,13.37c-84.36,33.74-158.25,81.68-220.22,142.81q-15.825,15.6-30.61,32.36c-40.76,46.2-75.34,98.67-103.22,156.57q-13.335,27.675-24.61,56.97a818.263,818.263,0,0,0-46.1,177.76C1.194,626.847,1,657.057,1,660.347V1035.3H930.9V660.347C930.9,657.057,930.714,626.847,924.134,580.837Z"/><path class="b" d="M217.071,596.351a4.387,4.387,0,0,0,2.355,2.924,24.229,24.229,0,0,0,4.955,1.787,41.783,41.783,0,0,0,7.067,1.218q4.142.407,8.934.65t9.829.244h9.909q12.995,0,23.88.487a93.868,93.868,0,0,1,21.281,3.411,14.6,14.6,0,0,1,2.436,5.036,21.236,21.236,0,0,1,.812,5.686,32.935,32.935,0,0,1-1.462,8.041,44.775,44.775,0,0,1-4.223,10.153q-5.2-1.622-11.534-3.086a56.893,56.893,0,0,0-12.833-1.462,30.338,30.338,0,0,0-5.2.65q-3.412.651-7.716,1.381t-8.935,1.3a71.215,71.215,0,0,1-8.691.569,32.106,32.106,0,0,1-9.178-1.543,44.912,44.912,0,0,0-9.829-1.868,11.525,11.525,0,0,0-.974,3.249,20.88,20.88,0,0,0-.325,3.411l.325,6.5a36.227,36.227,0,0,0,6.011.812q3.084.163,6.336.162,7.146,0,15.595-.569t19.981-.569a23.351,23.351,0,0,1,5.28.487,32.491,32.491,0,0,1,3.574,1.056q1.541.571,3.33,1.137a15.2,15.2,0,0,0,4.548.569l.163,1.462q.16.975-2.6,4.224a83.807,83.807,0,0,1-6.579,6.823,76.268,76.268,0,0,1-7.8,6.417q-3.982,2.844-6.254,3.005-5.037-.487-16.407-8.934t-17.87-8.448a12.82,12.82,0,0,0-3.817.488,6.982,6.982,0,0,0-2.843,1.787,15.726,15.726,0,0,0-.406,2.031q-.243,1.546-.406,3.412t-.244,3.736q-.084,1.87-.081,2.843a55.433,55.433,0,0,0,.406,6.741q.4,3.331.975,6.173t1.137,5.036q.567,2.193.893,3.33a37.914,37.914,0,0,1,7.229.65q3.328.651,6.742,1.381t7.31,1.3a62.223,62.223,0,0,0,8.935.569,77.232,77.232,0,0,0,9.909-.65q5.034-.648,10.8-1.787T294.152,687q6.579-1.622,14.539-3.411a45.9,45.9,0,0,1-2.112,14.783,43.493,43.493,0,0,1-5.849,11.371,30.413,30.413,0,0,1-9.584,5.036,36.538,36.538,0,0,1-10.071,1.3H248.261q-10.722,0-19.737-.731a117.787,117.787,0,0,1-16.814-2.518,20.975,20.975,0,0,0,3.005-6.417,27.9,27.9,0,0,0,.894-7.229,51.108,51.108,0,0,0-.812-6.741q-.815-4.953-1.787-10.478t-1.787-10.4a49.485,49.485,0,0,1-.812-6.5A19.558,19.558,0,0,1,211.628,658a56.066,56.066,0,0,1,2.762-6.092,60.394,60.394,0,0,0,2.761-6.01,18.416,18.416,0,0,0,1.219-6.823,31.157,31.157,0,0,0-1.462-9.26,31.161,31.161,0,0,1-3.005-3.086,18.967,18.967,0,0,1-2.03-2.924,14.134,14.134,0,0,1-1.3-3.33,24.177,24.177,0,0,1-.65-4.63,72.594,72.594,0,0,1,.974-12.915,33.927,33.927,0,0,1,3.9-10.478Q216.258,592.452,217.071,596.351Z"/><path class="b" d="M402.1,601.712q13.645,2.764,19.412,10.478t5.767,19.737a35.023,35.023,0,0,1-2.761,13.158,19.449,19.449,0,0,0-2.681-6.9q-1.869-2.84-6.579-3.167a82.317,82.317,0,0,0-2.112,19.819,133.826,133.826,0,0,0,2.924,28.429q2.924,13.485,6.173,27.779a43.763,43.763,0,0,1-.812,7.31h-.974a52.529,52.529,0,0,0-9.5-15.514,93.054,93.054,0,0,0-13.727-12.671,152.609,152.609,0,0,0-16.488-10.8q-8.856-5.033-17.707-9.909t-17.3-9.747A116.663,116.663,0,0,1,330.3,649.147a.862.862,0,0,0-.975.975q1.95,1.789,6.417,6.823t9.178,11.452a107.14,107.14,0,0,1,8.285,13.158q3.571,6.743,3.574,11.94a15.316,15.316,0,0,1-2.924,9.016,27.534,27.534,0,0,1-7.716,7.229,39.973,39.973,0,0,1-10.8,4.792,49.136,49.136,0,0,1-12.184,1.868,13.123,13.123,0,0,1-4.143-.731q-2.193-.731-4.792-1.868l-1.787-4.061a39.212,39.212,0,0,0,7.96-13,41.628,41.628,0,0,0,2.924-14.945,42.471,42.471,0,0,0-.65-5.848q-.651-4.058-1.381-8.61t-1.381-8.529a40.513,40.513,0,0,1-.65-5.6,23.268,23.268,0,0,1,4.061-13.321q-5.525-10.07-5.523-24.692a62.1,62.1,0,0,1,4.548-23.88h3.087a48.473,48.473,0,0,0,8.853,14.945,92.335,92.335,0,0,0,12.915,12.265A153.419,153.419,0,0,0,362.38,629q8.041,4.874,16,9.747t15.189,10.072a78.761,78.761,0,0,1,12.752,11.371l.488.487,1.462-.487v-6.336a165.054,165.054,0,0,0-.974-19.819,21.891,21.891,0,0,1-5.686-3.33,26.738,26.738,0,0,1-5.28-5.848,43.654,43.654,0,0,1-4.629-9.178,100.508,100.508,0,0,1-3.9-13.321,17.986,17.986,0,0,1,1.056-6.173,11.366,11.366,0,0,1,3.33-4.874h1.787Q395.437,598.953,402.1,601.712Z"/><path class="b" d="M429.875,592.452a47.067,47.067,0,0,0,12.508,4.467,69.461,69.461,0,0,0,14.133,1.381q1.462,0,6.579-.487t11.046-.975q5.928-.487,11.453-.975t7.8-.487a80.453,80.453,0,0,1,11.371.812,35.838,35.838,0,0,1,10.315,3.005,20.265,20.265,0,0,1,7.554,6.011q2.924,3.819,2.925,9.99a30.915,30.915,0,0,1-1.787,10.072q-1.789,5.2-3.736,9.747a12.681,12.681,0,0,0-4.387-5.523,13.672,13.672,0,0,0-8.285-2.274q-7.961,0-11.777.244a53.844,53.844,0,0,0-6.011.65q-2.193.407-4.3.65a64.669,64.669,0,0,1-6.66.243,5.262,5.262,0,0,0-3.249.975,7.37,7.37,0,0,0-2.112,2.518,15.9,15.9,0,0,0-1.3,3.412q-.487,1.869-.812,3.493a15,15,0,0,0,3.412,5.6q2.76,3.168,6.5,6.9t7.96,7.96a106.344,106.344,0,0,1,7.8,8.691,52.06,52.06,0,0,1,5.929,9.179,20.939,20.939,0,0,1,2.355,9.422,17.451,17.451,0,0,1-4.3,11.372,41.335,41.335,0,0,1-10.64,9.016,64.282,64.282,0,0,1-13.321,6.092,44.877,44.877,0,0,1-12.346,2.436l-2.274-.162q-.975-.487-.975-1.137a30.821,30.821,0,0,0,9.016-9.99,28.424,28.424,0,0,0,3.492-14.377q0-1.949-2.6-7.067T465.451,672.3q-3.088-5.928-5.686-11.371t-2.6-8.041a22.576,22.576,0,0,1,1.462-8.285,35.567,35.567,0,0,1,3.33-6.579,32.65,32.65,0,0,1,3.493-4.548,10.068,10.068,0,0,0,1.949-2.518A53.855,53.855,0,0,1,453.349,629a45.157,45.157,0,0,1-13.159-5.848,33.594,33.594,0,0,1-9.828-9.909,25.684,25.684,0,0,1-3.9-14.3,15.276,15.276,0,0,1,.406-3.167q.4-1.866.893-4.467H428.9Z"/><path class="b" d="M538.064,596.351a4.387,4.387,0,0,0,2.355,2.924,24.229,24.229,0,0,0,4.955,1.787,41.783,41.783,0,0,0,7.067,1.218q4.142.407,8.934.65t9.829.244h9.909q12.995,0,23.88.487a93.868,93.868,0,0,1,21.281,3.411,14.6,14.6,0,0,1,2.436,5.036,21.236,21.236,0,0,1,.812,5.686,32.935,32.935,0,0,1-1.462,8.041,44.775,44.775,0,0,1-4.223,10.153q-5.2-1.622-11.534-3.086a56.893,56.893,0,0,0-12.833-1.462,30.338,30.338,0,0,0-5.2.65q-3.412.651-7.716,1.381t-8.935,1.3a71.215,71.215,0,0,1-8.691.569,32.106,32.106,0,0,1-9.178-1.543,44.912,44.912,0,0,0-9.829-1.868,11.525,11.525,0,0,0-.974,3.249,20.88,20.88,0,0,0-.325,3.411l.325,6.5a36.227,36.227,0,0,0,6.011.812q3.084.163,6.336.162,7.146,0,15.595-.569t19.981-.569a23.351,23.351,0,0,1,5.28.487,32.491,32.491,0,0,1,3.574,1.056q1.541.571,3.33,1.137a15.2,15.2,0,0,0,4.548.569l.163,1.462q.16.975-2.6,4.224a83.807,83.807,0,0,1-6.579,6.823,76.268,76.268,0,0,1-7.8,6.417q-3.982,2.844-6.254,3.005-5.037-.487-16.407-8.934t-17.87-8.448a12.82,12.82,0,0,0-3.817.488,6.982,6.982,0,0,0-2.843,1.787,15.726,15.726,0,0,0-.406,2.031q-.243,1.546-.406,3.412t-.244,3.736q-.084,1.87-.081,2.843a55.433,55.433,0,0,0,.406,6.741q.4,3.331.975,6.173t1.137,5.036q.567,2.193.893,3.33a37.914,37.914,0,0,1,7.229.65q3.328.651,6.742,1.381t7.31,1.3a62.223,62.223,0,0,0,8.935.569,77.232,77.232,0,0,0,9.909-.65q5.034-.648,10.8-1.787T615.145,687q6.579-1.622,14.539-3.411a45.9,45.9,0,0,1-2.112,14.783,43.493,43.493,0,0,1-5.849,11.371,30.413,30.413,0,0,1-9.584,5.036,36.538,36.538,0,0,1-10.071,1.3H569.254q-10.722,0-19.737-.731a117.787,117.787,0,0,1-16.814-2.518,20.975,20.975,0,0,0,3.005-6.417,27.9,27.9,0,0,0,.894-7.229,51.108,51.108,0,0,0-.812-6.741q-.815-4.953-1.787-10.478t-1.787-10.4a49.485,49.485,0,0,1-.812-6.5A19.558,19.558,0,0,1,532.621,658a56.066,56.066,0,0,1,2.762-6.092,60.394,60.394,0,0,0,2.761-6.01,18.416,18.416,0,0,0,1.219-6.823,31.157,31.157,0,0,0-1.462-9.26,31.161,31.161,0,0,1-3.005-3.086,18.967,18.967,0,0,1-2.03-2.924,14.134,14.134,0,0,1-1.3-3.33,24.177,24.177,0,0,1-.65-4.63,72.594,72.594,0,0,1,.974-12.915,33.927,33.927,0,0,1,3.9-10.478Q537.251,592.452,538.064,596.351Z"/><path class="b" d="M649.664,595.863a36.5,36.5,0,0,0,10.234,1.462,14.813,14.813,0,0,0,3.655-.65q2.352-.647,5.117-1.462t5.685-1.462a24.983,24.983,0,0,1,5.361-.65q16.082,0,28.1.812t19.9,4.467A24.615,24.615,0,0,1,739.5,609.428q3.9,7.394,3.9,20.387a37.491,37.491,0,0,1-2.6,13.889q-2.6,6.58-7.8,9.341-1.462.815-6.741,1.3t-12.508.731q-7.231.244-15.27.487t-15.189.406q-7.15.164-12.264.406a28.378,28.378,0,0,0-6.417.731q-.163,1.138-.488,2.518a9.9,9.9,0,0,0-.325,2.031q0,6.335,5.361,18.681,5.36,12.511,5.36,18.844a15.806,15.806,0,0,1-1.3,6.173,20.737,20.737,0,0,1-3.493,5.6,19.039,19.039,0,0,1-4.874,4.061,10.781,10.781,0,0,1-5.442,1.543q-12.511,0-18.032-6.742t-5.523-17.788a37.49,37.49,0,0,1,3.493-16.082q3.491-7.47,7.8-14.7t7.8-14.62a36.253,36.253,0,0,0,3.493-15.676V628.84a19.206,19.206,0,0,1-8.853-4.386,26.317,26.317,0,0,1-5.929-7.635,36.623,36.623,0,0,1-3.33-9.422,57.294,57.294,0,0,1-1.219-9.91,18.69,18.69,0,0,1,1.137-6.173h.974A21.148,21.148,0,0,0,649.664,595.863Zm15.757,52.308q24.26-.323,40.221-.406t21.5-1.705q.974-.647,1.873-1.219a5.628,5.628,0,0,0,1.546-1.462,7.275,7.275,0,0,0,1.058-2.437,16.816,16.816,0,0,0,.409-4.142,6.325,6.325,0,0,0-1.629-4.792q-1.63-1.542-3.257-3.168H665.422Zm31.027,12.021a31.242,31.242,0,0,1,12.915,2.518,38.168,38.168,0,0,1,10.072,6.579,63.792,63.792,0,0,1,8.122,8.935q3.655,4.873,6.985,9.747t6.579,9.016a28.007,28.007,0,0,0,7.148,6.579l.162,2.762a8.15,8.15,0,0,1-1.381,4.955,9.33,9.33,0,0,1-3.655,2.924,18.092,18.092,0,0,1-5.036,1.462,37.864,37.864,0,0,1-5.523.406,28.082,28.082,0,0,1-12.59-2.924,37.43,37.43,0,0,1-10.478-7.635,39.641,39.641,0,0,1-7.31-10.478,26.309,26.309,0,0,1-2.761-11.453,36.04,36.04,0,0,0-1.95-12.346,18.656,18.656,0,0,0-6.985-8.935.431.431,0,0,1-.488-.487.575.575,0,0,0-.65-.65l1.137-.975Z"/><path class="b" d="M924.13,580.84l-87.97,20.95c-2.46-18.82-6.2-41.38-11.89-66.49-3.57-15.76-7.91-32.52-13.17-50a694.845,694.845,0,0,0-34.38-90.85l76.71-48.34q13.335,27.675,24.6,56.97A818.255,818.255,0,0,1,924.13,580.84Z"/><path class="b" d="M853.43,346.11l-76.71,48.34a632,632,0,0,0-29.57-56.41c-.54-.91-1.1-1.82-1.65-2.74a594.48,594.48,0,0,0-33.42-50,561.8,561.8,0,0,0-48.24-56.55l55.76-71.57q15.825,15.615,30.6,32.36C790.96,235.74,825.54,288.21,853.43,346.11Z"/><path class="b" d="M924.13,580.84c6.58,46.01,6.77,76.22,6.77,79.51V804.12h-90V660.35s0-22.36-4.74-58.56Z"/><polygon class="b" points="930.9 804.12 930.9 1035.3 840.9 1035.3 840.9 935.3 840.9 885.3 840.9 804.12 930.9 804.12"/><path class="b" d="M719.6,157.18l-55.76,71.57q-5.13-5.25-10.44-10.42a552.859,552.859,0,0,0-93.75-73.2,598.147,598.147,0,0,0-93.7-47.2V1l33.42,13.37C583.73,48.12,657.63,96.06,719.6,157.18Z"/><path class="b" d="M465.95,1V97.93c-.02.01-.04.01-.05.02a596.642,596.642,0,0,0-93.75,47.24,552.226,552.226,0,0,0-93.75,73.24q-5.265,5.13-10.33,10.33l-.01-.01L212.3,157.18C274.27,96.05,348.16,48.11,432.52,14.37Z"/><path class="b" d="M268.06,228.75l.01.01a560.458,560.458,0,0,0-48.26,56.54,594.48,594.48,0,0,0-33.42,50c-.58.97-1.17,1.94-1.74,2.91a632.019,632.019,0,0,0-29.47,56.24L78.47,346.11c27.88-57.9,62.46-110.37,103.22-156.57q14.775-16.755,30.61-32.36Z"/><path class="b" d="M107.62,535.3c-5.69,25.11-9.42,47.67-11.88,66.49h-.01L7.76,580.84a818.255,818.255,0,0,1,46.1-177.76q11.265-29.28,24.61-56.97l76.71,48.34A693.951,693.951,0,0,0,120.8,485.3C115.53,502.77,111.19,519.54,107.62,535.3Z"/><path class="b" d="M95.73,601.79h.01C91,637.99,91,660.35,91,660.35V804.12H1V660.35c0-3.29.19-33.5,6.76-79.51Z"/><polygon class="b" points="91 935.3 91 1035.3 1 1035.3 1 804.12 91 804.12 91 885.3 91 935.3"/><polyline class="c" points="840.9 804.12 840.9 885.3 840.9 935.3 840.9 1035.3"/><path class="c" d="M840.9,804.12V660.35s0-22.36-4.74-58.56"/><path class="c" d="M836.16,601.79c-2.46-18.82-6.2-41.38-11.89-66.49-3.57-15.76-7.91-32.52-13.17-50a694.845,694.845,0,0,0-34.38-90.85"/><path class="c" d="M776.72,394.45a632,632,0,0,0-29.57-56.41c-.54-.91-1.1-1.82-1.65-2.74a594.48,594.48,0,0,0-33.42-50,561.8,561.8,0,0,0-48.24-56.55"/><path class="c" d="M663.84,228.75q-5.13-5.25-10.44-10.42a552.859,552.859,0,0,0-93.75-73.2,598.147,598.147,0,0,0-93.7-47.2"/><path class="c" d="M465.95,97.93c-.02.01-.04.01-.05.02a596.642,596.642,0,0,0-93.75,47.24,552.226,552.226,0,0,0-93.75,73.24q-5.265,5.13-10.33,10.33"/><path class="c" d="M268.07,228.76a560.458,560.458,0,0,0-48.26,56.54,594.48,594.48,0,0,0-33.42,50c-.58.97-1.17,1.94-1.74,2.91a632.019,632.019,0,0,0-29.47,56.24"/><line class="c" x1="268.06" y1="228.75" x2="268.07" y2="228.76"/><path class="c" d="M155.18,394.45A693.951,693.951,0,0,0,120.8,485.3c-5.27,17.47-9.61,34.24-13.18,50-5.69,25.11-9.42,47.67-11.88,66.49"/><path class="c" d="M95.74,601.79C91,637.99,91,660.35,91,660.35V804.12"/><line class="c" x1="95.73" y1="601.79" x2="95.74" y2="601.79"/><polyline class="c" points="91 804.12 91 885.3 91 935.3 91 1035.3"/><line class="c" x1="465.95" y1="1" x2="465.95" y2="97.93"/><polyline class="c" points="930.9 804.12 930.9 1035.3 840.9 1035.3"/><path class="c" d="M924.13,580.84c6.58,46.01,6.77,76.22,6.77,79.51V804.12"/><path class="c" d="M853.43,346.11q13.335,27.675,24.6,56.97a818.255,818.255,0,0,1,46.1,177.76"/><path class="c" d="M853.43,346.11c-27.89-57.9-62.47-110.37-103.23-156.57q-14.775-16.74-30.6-32.36"/><path class="c" d="M465.95,1l33.42,13.37C583.73,48.12,657.63,96.06,719.6,157.18"/><path class="c" d="M212.3,157.18C274.27,96.05,348.16,48.11,432.52,14.37L465.95,1"/><path class="c" d="M78.47,346.11c27.88-57.9,62.46-110.37,103.22-156.57q14.775-16.755,30.61-32.36"/><path class="c" d="M7.76,580.84a818.255,818.255,0,0,1,46.1-177.76q11.265-29.28,24.61-56.97"/><path class="c" d="M7.76,580.84C1.19,626.85,1,657.06,1,660.35V804.12"/><polyline class="c" points="1 804.12 1 1035.3 91 1035.3"/><line class="c" x1="91" y1="804.12" x2="1" y2="804.12"/><line class="c" x1="78.47" y1="346.11" x2="155.18" y2="394.45"/><line class="c" x1="7.76" y1="580.84" x2="95.73" y2="601.79"/><line class="c" x1="212.3" y1="157.18" x2="268.06" y2="228.75"/><line class="c" x1="930.9" y1="804.12" x2="840.9" y2="804.12"/><line class="c" x1="853.43" y1="346.11" x2="776.72" y2="394.45"/><line class="c" x1="924.13" y1="580.84" x2="836.16" y2="601.79"/><line class="c" x1="663.84" y1="228.75" x2="719.6" y2="157.18"/></svg>