<svg xmlns="http://www.w3.org/2000/svg" viewBox="0 0 376.9 939.35" preserveAspectRatio="true"><defs><style>.a{fill:blue;}.b,.c{fill:none;stroke:#fff;stroke-width:2px;}.b{stroke-linecap:round;stroke-linejoin:round;}.c{stroke-miterlimit:10;}</style></defs><title>left_door</title><rect class="a" x="188.4" y="838.35" width="93.75" height="100"/><rect class="a" x="94.65" y="838.35" width="93.75" height="100"/><rect class="a" x="1" y="838.35" width="93.65" height="100"/><rect class="a" x="282.15" y="838.35" width="93.75" height="100"/><polygon class="a" points="375.9 788.35 375.9 838.35 282.15 838.35 188.4 838.35 94.65 838.35 1 838.35 1 788.35 94.65 788.35 188.4 788.35 282.15 788.35 375.9 788.35"/><polygon class="a" points="94.65 638.35 94.65 788.35 1 788.35 1 707.17 1 638.35 94.65 638.35"/><path class="a" d="M188.4,677.52V788.35H94.65v-150h35.03A63.652,63.652,0,0,0,188.4,677.52Z"/><path class="a" d="M188.4,638.35h37.28a44.506,44.506,0,0,1-37.23,20.08h-.05Z"/><path class="a" d="M188.4,638.35v20.08a44.49,44.49,0,0,1-37.18-20.08Z"/><rect class="a" x="282.15" y="638.35" width="93.75" height="150"/><path class="a" d="M188.45,677.52a63.662,63.662,0,0,0,58.76-39.17h34.94v150H188.4V677.52Z"/><path class="a" d="M375.9,588.35v50H247.21a63.858,63.858,0,0,0-.46-50H375.9Z"/><path class="a" d="M94.65,438.35v150H1V563.4s0-22.36,4.74-58.56c2.46-18.82,6.19-41.38,11.88-66.49Z"/><path class="a" d="M124.81,613.89a63.393,63.393,0,0,0,4.87,24.46H1v-50H130.14A63.357,63.357,0,0,0,124.81,613.89Z"/><path class="a" d="M232.99,613.89a44.355,44.355,0,0,1-7.31,24.46H151.22a44.51,44.51,0,0,1,.74-50h72.98A44.268,44.268,0,0,1,232.99,613.89Z"/><path class="a" d="M188.45,575.7a8.819,8.819,0,0,0,8.21-5.59,44.526,44.526,0,0,1,28.28,18.24H188.4V575.7Z"/><path class="a" d="M188.4,575.7v12.65H151.96a44.5,44.5,0,0,1,28.28-18.24,8.66,8.66,0,0,0,3.04,3.92A8.872,8.872,0,0,0,188.4,575.7Z"/><rect class="a" x="188.4" y="238.35" width="93.75" height="150"/><path class="a" d="M188.4,238.35v150H94.65V241.26c.57-.97,1.16-1.94,1.74-2.91Z"/><rect class="a" x="282.15" y="238.35" width="93.75" height="150"/><path class="a" d="M375.9,388.35v50H17.62c3.57-15.76,7.91-32.53,13.18-50H375.9Z"/><path class="a" d="M195.29,537.52a8.828,8.828,0,0,1,8.37,11.62l-6.84,20.53c-.05.15-.11.29-.16.44a8.819,8.819,0,0,1-8.21,5.59h-.05a8.872,8.872,0,0,1-5.12-1.67,8.66,8.66,0,0,1-3.04-3.92c-.06-.15-.12-.29-.17-.44l-5.93-17.8-.91-2.73a8.829,8.829,0,0,1,8.38-11.62h13.68Z"/><path class="a" d="M174.14,551.87a63.741,63.741,0,0,0-44,36.48H94.65v-150H188.4v99.17h-6.79a8.829,8.829,0,0,0-8.38,11.62Z"/><rect class="a" x="282.15" y="438.35" width="93.75" height="150"/><path class="a" d="M224.94,588.35a44.526,44.526,0,0,0-28.28-18.24c.05-.15.11-.29.16-.44l5.94-17.8a63.638,63.638,0,0,1-14.31,125.65h-.05a63.638,63.638,0,0,1-14.26-125.65l5.93,17.8c.05.15.11.29.17.44a44.541,44.541,0,0,0,8.16,88.32h.05a44.54,44.54,0,0,0,36.49-70.08Z"/><path class="a" d="M94.65,241.26V388.35H30.8A693.951,693.951,0,0,1,65.18,297.5,632.019,632.019,0,0,1,94.65,241.26Z"/><path class="a" d="M282.15,48.24V188.35H188.4V121.48A552.226,552.226,0,0,1,282.15,48.24Z"/><path class="a" d="M188.4,121.48v66.87H129.81a560.458,560.458,0,0,1,48.26-56.54Q183.125,126.605,188.4,121.48Z"/><path class="a" d="M375.9,1V188.35H282.15V48.24A596.642,596.642,0,0,1,375.9,1Z"/><path class="a" d="M375.9,188.35v50H96.39a594.48,594.48,0,0,1,33.42-50H375.9Z"/><path class="a" d="M282.15,438.35v150h-35.4a63.744,63.744,0,0,0-43.99-36.48l-5.94,17.8,6.84-20.53a8.828,8.828,0,0,0-8.37-11.62H188.4V438.35Z"/><line class="b" x1="375.9" y1="938.35" x2="375.9" y2="838.35"/><line class="b" x1="375.9" y1="838.35" x2="375.9" y2="788.35"/><line class="b" x1="375.9" y1="788.35" x2="375.9" y2="638.35"/><line class="b" x1="375.9" y1="638.35" x2="375.9" y2="588.35"/><line class="b" x1="375.9" y1="588.35" x2="375.9" y2="438.35"/><line class="b" x1="375.9" y1="438.35" x2="375.9" y2="388.35"/><line class="b" x1="375.9" y1="388.35" x2="375.9" y2="238.35"/><line class="b" x1="375.9" y1="238.35" x2="375.9" y2="188.35"/><line class="b" x1="375.9" y1="188.35" x2="375.9" y2="1"/><path class="b" d="M96.39,238.35a594.48,594.48,0,0,1,33.42-50"/><line class="b" x1="282.15" y1="188.35" x2="375.9" y2="188.35"/><path class="b" d="M282.15,48.24A596.642,596.642,0,0,1,375.9,1"/><path class="b" d="M188.4,121.48a552.226,552.226,0,0,1,93.75-73.24"/><line class="b" x1="282.15" y1="188.35" x2="188.4" y2="188.35"/><line class="b" x1="282.15" y1="188.35" x2="282.15" y2="48.24"/><path class="b" d="M188.4,121.48q-5.265,5.13-10.33,10.33a560.458,560.458,0,0,0-48.26,56.54"/><line class="b" x1="188.4" y1="188.35" x2="129.81" y2="188.35"/><line class="b" x1="188.4" y1="121.48" x2="188.4" y2="188.35"/><path class="b" d="M17.62,438.35c3.57-15.76,7.91-32.53,13.18-50"/><path class="b" d="M94.65,241.26A632.019,632.019,0,0,0,65.18,297.5,693.951,693.951,0,0,0,30.8,388.35"/><line class="b" x1="30.8" y1="388.35" x2="94.65" y2="388.35"/><line class="b" x1="282.15" y1="388.35" x2="375.9" y2="388.35"/><line class="b" x1="282.15" y1="238.35" x2="375.9" y2="238.35"/><path class="b" d="M94.65,241.26c.57-.97,1.16-1.94,1.74-2.91"/><line class="b" x1="188.4" y1="388.35" x2="94.65" y2="388.35"/><line class="b" x1="96.39" y1="238.35" x2="188.4" y2="238.35"/><line class="b" x1="94.65" y1="241.26" x2="94.65" y2="388.35"/><line class="b" x1="282.15" y1="388.35" x2="188.4" y2="388.35"/><line class="b" x1="282.15" y1="388.35" x2="282.15" y2="238.35"/><line class="b" x1="282.15" y1="238.35" x2="188.4" y2="238.35"/><line class="b" x1="188.4" y1="388.35" x2="188.4" y2="238.35"/><line class="b" x1="1" y1="588.35" x2="1" y2="638.35"/><path class="b" d="M17.62,438.35c-5.69,25.11-9.42,47.67-11.88,66.49C1,541.04,1,563.4,1,563.4v24.95"/><line class="b" x1="17.62" y1="438.35" x2="94.65" y2="438.35"/><line class="b" x1="94.65" y1="588.35" x2="1" y2="588.35"/><line class="b" x1="282.15" y1="588.35" x2="375.9" y2="588.35"/><line class="b" x1="282.15" y1="438.35" x2="375.9" y2="438.35"/><line class="b" x1="188.4" y1="588.35" x2="151.96" y2="588.35"/><line class="b" x1="94.65" y1="438.35" x2="188.4" y2="438.35"/><line class="b" x1="94.65" y1="588.35" x2="130.14" y2="588.35"/><line class="b" x1="94.65" y1="588.35" x2="94.65" y2="438.35"/><line class="b" x1="246.75" y1="588.35" x2="282.15" y2="588.35"/><line class="b" x1="282.15" y1="438.35" x2="282.15" y2="588.35"/><line class="b" x1="282.15" y1="438.35" x2="188.4" y2="438.35"/><line class="b" x1="188.4" y1="438.35" x2="188.4" y2="537.52"/><line class="b" x1="224.94" y1="588.35" x2="188.4" y2="588.35"/><line class="b" x1="188.4" y1="575.7" x2="188.4" y2="588.35"/><line class="b" x1="1" y1="838.35" x2="1" y2="788.35"/><polyline class="b" points="1 638.35 1 707.17 1 788.35"/><line class="b" x1="94.65" y1="638.35" x2="1" y2="638.35"/><line class="b" x1="1" y1="788.35" x2="94.65" y2="788.35"/><polyline class="b" points="94.65 938.35 1 938.35 1 838.35"/><line class="b" x1="1" y1="838.35" x2="94.65" y2="838.35"/><line class="b" x1="282.15" y1="788.35" x2="375.9" y2="788.35"/><line class="b" x1="282.15" y1="638.35" x2="375.9" y2="638.35"/><line class="b" x1="282.15" y1="838.35" x2="375.9" y2="838.35"/><line class="b" x1="375.9" y1="938.35" x2="282.15" y2="938.35"/><line class="b" x1="94.65" y1="938.35" x2="188.4" y2="938.35"/><line class="b" x1="188.4" y1="838.35" x2="94.65" y2="838.35"/><line class="b" x1="94.65" y1="938.35" x2="94.65" y2="838.35"/><line class="b" x1="188.4" y1="788.35" x2="94.65" y2="788.35"/><line class="b" x1="129.68" y1="638.35" x2="94.65" y2="638.35"/><line class="b" x1="94.65" y1="638.35" x2="94.65" y2="788.35"/><line class="b" x1="188.4" y1="638.35" x2="151.22" y2="638.35"/><line class="b" x1="282.15" y1="938.35" x2="188.4" y2="938.35"/><line class="b" x1="282.15" y1="838.35" x2="282.15" y2="938.35"/><line class="b" x1="282.15" y1="838.35" x2="188.4" y2="838.35"/><line class="b" x1="188.4" y1="838.35" x2="188.4" y2="938.35"/><line class="b" x1="282.15" y1="788.35" x2="188.4" y2="788.35"/><line class="b" x1="282.15" y1="788.35" x2="282.15" y2="638.35"/><line class="b" x1="282.15" y1="638.35" x2="247.21" y2="638.35"/><line class="b" x1="188.4" y1="677.52" x2="188.4" y2="788.35"/><line class="c" x1="188.4" y1="638.35" x2="188.4" y2="658.43"/><line class="b" x1="225.68" y1="638.35" x2="188.4" y2="638.35"/><path class="b" d="M196.66,570.11a8.819,8.819,0,0,1-8.21,5.59h-.05"/><path class="b" d="M188.4,575.7a8.872,8.872,0,0,1-5.12-1.67,8.66,8.66,0,0,1-3.04-3.92"/><path class="b" d="M196.82,569.67l6.84-20.53a8.828,8.828,0,0,0-8.37-11.62H188.4"/><path class="b" d="M174.14,551.87l-.91-2.73a8.829,8.829,0,0,1,8.38-11.62h6.79"/><path class="b" d="M247.21,638.35a63.858,63.858,0,0,0-.46-50"/><path class="b" d="M225.68,638.35a44.506,44.506,0,0,1-37.23,20.08h-.05"/><path class="b" d="M247.21,638.35a63.662,63.662,0,0,1-58.76,39.17h-.05"/><path class="b" d="M196.82,569.67l5.94-17.8a63.744,63.744,0,0,1,43.99,36.48"/><path class="b" d="M225.68,638.35a44.558,44.558,0,0,0-.74-50"/><path class="b" d="M224.94,588.35a44.526,44.526,0,0,0-28.28-18.24"/><path class="b" d="M196.82,569.67c-.05.15-.11.29-.16.44"/><path class="b" d="M151.22,638.35a44.49,44.49,0,0,0,37.18,20.08"/><path class="b" d="M129.68,638.35a63.652,63.652,0,0,0,58.72,39.17"/><path class="b" d="M180.24,570.11a44.5,44.5,0,0,0-28.28,18.24"/><path class="b" d="M174.14,551.87l5.93,17.8c.05.15.11.29.17.44"/><path class="b" d="M130.14,588.35a63.741,63.741,0,0,1,44-36.48"/><path class="b" d="M151.22,638.35a44.51,44.51,0,0,1,.74-50"/><path class="b" d="M130.14,588.35a63.858,63.858,0,0,0-.46,50"/></svg>