<svg xmlns="http://www.w3.org/2000/svg" viewBox="0 0 377 939.37"><defs><style>.a{fill:blue;}.b,.c{fill:none;stroke:#fff;stroke-width:2px;}.b{stroke-linecap:round;stroke-linejoin:round;}.c{stroke-miterlimit:10;}</style></defs><title>right_door</title><rect class="a" x="282.25" y="838.37" width="93.75" height="100"/><polygon class="a" points="376 788.37 376 838.37 282.25 838.37 188.5 838.37 94.75 838.37 1.05 838.37 1.05 788.37 94.75 788.37 188.5 788.37 282.25 788.37 376 788.37"/><path class="a" d="M224.99,588.37H188.5V575.72a8.819,8.819,0,0,0,8.21-5.59A44.526,44.526,0,0,1,224.99,588.37Z"/><rect class="a" x="1.05" y="838.37" width="93.7" height="100"/><rect class="a" x="188.5" y="838.37" width="93.75" height="100"/><path class="a" d="M282.25,638.37v150H188.5V677.54a63.662,63.662,0,0,0,58.76-39.17Z"/><path class="a" d="M188.5,677.54V788.37H94.75v-150h34.98A63.665,63.665,0,0,0,188.5,677.54Z"/><rect class="a" x="94.75" y="838.37" width="93.75" height="100"/><polygon class="a" points="376 707.19 376 788.37 282.25 788.37 282.25 638.37 376 638.37 376 707.19"/><rect class="a" x="1.05" y="638.37" width="93.7" height="150"/><path class="a" d="M188.5,658.45V638.37h37.24A44.537,44.537,0,0,1,188.5,658.45Z"/><path class="a" d="M188.5,638.37v20.08a44.493,44.493,0,0,1-37.23-20.08Z"/><path class="a" d="M188.5,575.72v12.65H152a44.548,44.548,0,0,1,28.29-18.24,8.547,8.547,0,0,0,3.05,3.92A8.784,8.784,0,0,0,188.5,575.72Z"/><path class="a" d="M282.25,241.11V388.37H188.5v-150h92.1C281.15,239.29,281.71,240.2,282.25,241.11Z"/><rect class="a" x="94.75" y="238.37" width="93.75" height="150"/><path class="a" d="M233.04,613.91a44.429,44.429,0,0,1-7.3,24.46H151.27a44.534,44.534,0,0,1,.73-50h72.99A44.341,44.341,0,0,1,233.04,613.91Z"/><rect class="a" x="1.05" y="438.37" width="93.7" height="150"/><path class="a" d="M124.86,613.91a63.393,63.393,0,0,0,4.87,24.46H1.05v-50H130.19A63.357,63.357,0,0,0,124.86,613.91Z"/><path class="a" d="M376,563.42v24.95H282.25v-150h77.12c5.69,25.11,9.43,47.67,11.89,66.49C376,541.06,376,563.42,376,563.42Z"/><path class="a" d="M376,588.37v50H247.26a63.858,63.858,0,0,0-.46-50H376Z"/><path class="a" d="M282.25,438.37v150H246.8a63.744,63.744,0,0,0-43.99-36.48l-5.94,17.8,6.84-20.53a8.828,8.828,0,0,0-8.37-11.62H188.5V438.37Z"/><path class="a" d="M188.5,121.4v66.97H94.75V48.2A552.859,552.859,0,0,1,188.5,121.4Z"/><path class="a" d="M247.18,188.37H188.5V121.4q5.325,5.175,10.44,10.42A561.8,561.8,0,0,1,247.18,188.37Z"/><path class="a" d="M195.34,537.54a8.828,8.828,0,0,1,8.37,11.62l-6.84,20.53c-.05.15-.11.29-.16.44a8.818,8.818,0,0,1-13.37,3.92,8.547,8.547,0,0,1-3.05-3.92c-.06-.15-.12-.29-.17-.44l-5.93-17.8-.91-2.73a8.828,8.828,0,0,1,8.37-11.62h13.69Z"/><path class="a" d="M359.37,438.37H1.05v-50H346.2C351.46,405.85,355.8,422.61,359.37,438.37Z"/><path class="a" d="M94.75,48.2V188.37H1.05V1A598.147,598.147,0,0,1,94.75,48.2Z"/><path class="a" d="M188.5,658.45v19.09a63.638,63.638,0,0,1-14.31-125.65l5.93,17.8c.05.15.11.29.17.44a44.541,44.541,0,0,0,8.21,88.32Z"/><path class="a" d="M346.2,388.37H282.25V241.11a632,632,0,0,1,29.57,56.41A694.845,694.845,0,0,1,346.2,388.37Z"/><path class="a" d="M188.5,677.54V658.45a44.542,44.542,0,0,0,8.21-88.32c.05-.15.11-.29.16-.44l5.94-17.8A63.638,63.638,0,0,1,188.5,677.54Z"/><path class="a" d="M173.28,549.16l.91,2.73a63.741,63.741,0,0,0-44,36.48H94.75v-150H188.5v99.17h-6.85A8.828,8.828,0,0,0,173.28,549.16Z"/><path class="a" d="M280.6,238.37H1.05v-50H247.18A594.48,594.48,0,0,1,280.6,238.37Z"/><rect class="a" x="1.05" y="238.37" width="93.7" height="150"/><line class="b" x1="1.05" y1="788.37" x2="1.05" y2="838.37"/><line class="b" x1="1.05" y1="388.37" x2="1.05" y2="438.37"/><line class="b" x1="1.05" y1="188.37" x2="1.05" y2="238.37"/><line class="b" x1="188.5" y1="677.54" x2="188.5" y2="658.45"/><line class="b" x1="1.05" y1="638.37" x2="1.05" y2="588.37"/><line class="b" x1="1.05" y1="838.37" x2="1.05" y2="938.37"/><line class="b" x1="1.05" y1="638.37" x2="1.05" y2="788.37"/><line class="b" x1="1.05" y1="438.37" x2="1.05" y2="588.37"/><line class="b" x1="1.05" y1="388.37" x2="1.05" y2="238.37"/><line class="b" x1="1.05" y1="1" x2="1.05" y2="188.37"/><path class="b" d="M280.6,238.37a594.48,594.48,0,0,0-33.42-50"/><path class="c" d="M1.05,1c-.02.01-.04.01-.05.02"/><path class="b" d="M1.05,1a598.147,598.147,0,0,1,93.7,47.2"/><polyline class="c" points="1 1.02 1 188.37 1.05 188.37"/><line class="b" x1="94.75" y1="188.37" x2="1.05" y2="188.37"/><path class="b" d="M94.75,48.2a552.859,552.859,0,0,1,93.75,73.2"/><line class="b" x1="188.5" y1="188.37" x2="94.75" y2="188.37"/><line class="b" x1="94.75" y1="188.37" x2="94.75" y2="48.2"/><path class="b" d="M188.5,121.4q5.325,5.175,10.44,10.42a561.8,561.8,0,0,1,48.24,56.55"/><line class="b" x1="188.5" y1="188.37" x2="247.18" y2="188.37"/><line class="b" x1="188.5" y1="188.37" x2="188.5" y2="121.4"/><path class="b" d="M346.2,388.37c5.26,17.48,9.6,34.24,13.17,50"/><path class="b" d="M282.25,241.11a632,632,0,0,1,29.57,56.41,694.845,694.845,0,0,1,34.38,90.85"/><line class="b" x1="282.25" y1="388.37" x2="346.2" y2="388.37"/><polyline class="c" points="1.05 388.37 1 388.37 1 238.37 1.05 238.37"/><line class="b" x1="1.05" y1="388.37" x2="94.75" y2="388.37"/><line class="b" x1="94.75" y1="238.37" x2="1.05" y2="238.37"/><path class="b" d="M280.6,238.37c.55.92,1.11,1.83,1.65,2.74"/><line class="b" x1="282.25" y1="388.37" x2="188.5" y2="388.37"/><line class="b" x1="282.25" y1="388.37" x2="282.25" y2="241.11"/><line class="b" x1="188.5" y1="238.37" x2="280.6" y2="238.37"/><line class="b" x1="94.75" y1="388.37" x2="188.5" y2="388.37"/><line class="b" x1="188.5" y1="238.37" x2="188.5" y2="388.37"/><line class="b" x1="188.5" y1="238.37" x2="94.75" y2="238.37"/><line class="b" x1="94.75" y1="238.37" x2="94.75" y2="388.37"/><line class="b" x1="376" y1="638.37" x2="376" y2="588.37"/><path class="b" d="M376,588.37V563.42s0-22.36-4.74-58.56c-2.46-18.82-6.2-41.38-11.89-66.49"/><line class="b" x1="376" y1="588.37" x2="282.25" y2="588.37"/><line class="b" x1="359.37" y1="438.37" x2="282.25" y2="438.37"/><polyline class="c" points="1.05 438.37 1 438.37 1 588.37 1.05 588.37"/><line class="b" x1="94.75" y1="438.37" x2="1.05" y2="438.37"/><line class="b" x1="94.75" y1="588.37" x2="1.05" y2="588.37"/><line class="b" x1="282.25" y1="588.37" x2="246.8" y2="588.37"/><line class="b" x1="282.25" y1="438.37" x2="282.25" y2="588.37"/><line class="b" x1="282.25" y1="438.37" x2="188.5" y2="438.37"/><line class="b" x1="188.5" y1="588.37" x2="224.99" y2="588.37"/><line class="c" x1="188.5" y1="588.37" x2="188.5" y2="575.72"/><line class="b" x1="152" y1="588.37" x2="188.5" y2="588.37"/><line class="b" x1="94.75" y1="438.37" x2="188.5" y2="438.37"/><line class="b" x1="188.5" y1="537.54" x2="188.5" y2="438.37"/><line class="b" x1="130.19" y1="588.37" x2="94.75" y2="588.37"/><line class="b" x1="94.75" y1="438.37" x2="94.75" y2="588.37"/><line class="b" x1="376" y1="838.37" x2="376" y2="788.37"/><polyline class="b" points="376 788.37 376 707.19 376 638.37"/><line class="b" x1="376" y1="788.37" x2="282.25" y2="788.37"/><line class="b" x1="376" y1="638.37" x2="282.25" y2="638.37"/><polyline class="b" points="282.25 938.37 376 938.37 376 838.37"/><line class="b" x1="376" y1="838.37" x2="282.25" y2="838.37"/><polyline class="c" points="1.05 638.37 1 638.37 1 788.37 1.05 788.37"/><line class="b" x1="1.05" y1="788.37" x2="94.75" y2="788.37"/><line class="b" x1="1.05" y1="638.37" x2="94.75" y2="638.37"/><polyline class="c" points="1.05 838.37 1 838.37 1 938.37 1.05 938.37"/><line class="b" x1="1.05" y1="938.37" x2="94.75" y2="938.37"/><line class="b" x1="94.75" y1="838.37" x2="1.05" y2="838.37"/><line class="b" x1="282.25" y1="788.37" x2="188.5" y2="788.37"/><line class="b" x1="282.25" y1="638.37" x2="282.25" y2="788.37"/><line class="b" x1="282.25" y1="638.37" x2="247.26" y2="638.37"/><line class="b" x1="188.5" y1="638.37" x2="225.74" y2="638.37"/><line class="b" x1="282.25" y1="938.37" x2="188.5" y2="938.37"/><line class="b" x1="282.25" y1="938.37" x2="282.25" y2="838.37"/><line class="b" x1="188.5" y1="838.37" x2="282.25" y2="838.37"/><line class="b" x1="188.5" y1="938.37" x2="94.75" y2="938.37"/><line class="b" x1="94.75" y1="838.37" x2="188.5" y2="838.37"/><line class="b" x1="188.5" y1="838.37" x2="188.5" y2="938.37"/><line class="b" x1="94.75" y1="838.37" x2="94.75" y2="938.37"/><line class="b" x1="94.75" y1="788.37" x2="188.5" y2="788.37"/><line class="b" x1="188.5" y1="788.37" x2="188.5" y2="677.54"/><line class="b" x1="129.73" y1="638.37" x2="94.75" y2="638.37"/><line class="b" x1="94.75" y1="788.37" x2="94.75" y2="638.37"/><line class="b" x1="151.27" y1="638.37" x2="188.5" y2="638.37"/><line class="b" x1="188.5" y1="658.45" x2="188.5" y2="638.37"/><path class="b" d="M196.71,570.13a8.819,8.819,0,0,1-8.21,5.59"/><path class="b" d="M180.29,570.13a8.547,8.547,0,0,0,3.05,3.92,8.784,8.784,0,0,0,5.16,1.67"/><path class="b" d="M196.87,569.69l6.84-20.53a8.828,8.828,0,0,0-8.37-11.62H188.5"/><path class="b" d="M174.19,551.89l-.91-2.73a8.828,8.828,0,0,1,8.37-11.62h6.85"/><path class="b" d="M246.8,588.37a63.858,63.858,0,0,1,.46,50"/><path class="b" d="M188.5,677.54a63.662,63.662,0,0,0,58.76-39.17"/><path class="b" d="M224.99,588.37a44.526,44.526,0,0,0-28.28-18.24"/><path class="b" d="M196.87,569.69l5.94-17.8a63.744,63.744,0,0,1,43.99,36.48"/><path class="b" d="M224.99,588.37a44.583,44.583,0,0,1,.75,50"/><path class="b" d="M188.5,658.45a44.537,44.537,0,0,0,37.24-20.08"/><path class="b" d="M196.87,569.69c-.05.15-.11.29-.16.44"/><path class="b" d="M129.73,638.37a63.665,63.665,0,0,0,58.77,39.17"/><path class="b" d="M151.27,638.37a44.493,44.493,0,0,0,37.23,20.08"/><path class="b" d="M180.29,570.13A44.548,44.548,0,0,0,152,588.37"/><path class="b" d="M174.19,551.89l5.93,17.8c.05.15.11.29.17.44"/><path class="b" d="M174.19,551.89a63.741,63.741,0,0,0-44,36.48"/><path class="b" d="M152,588.37a44.534,44.534,0,0,0-.73,50"/><path class="b" d="M130.19,588.37a63.858,63.858,0,0,0-.46,50"/></svg>