<svg xmlns="http://www.w3.org/2000/svg" viewBox="0 0 5500 2000"><defs><style>.a{fill:blue;}.b{fill:none;stroke:#fff;stroke-miterlimit:10;stroke-width:3px;}</style></defs><title>wall_02</title><rect class="a" x="-0.001" width="5500" height="2000"/><line class="b" x1="4374.999" y1="875" x2="4249.999" y2="875"/><line class="b" x1="4499.999" y1="1000" x2="4374.999" y2="1000"/><line class="b" x1="5499.999" y1="1750" x2="5499.999" y2="1625"/><line class="b" x1="5499.999" y1="1875" x2="5499.999" y2="1750"/><line class="b" x1="5374.999" y1="1750" x2="5499.999" y2="1750"/><line class="b" x1="5499.999" y1="1625" x2="5499.999" y2="1500"/><line class="b" x1="5374.999" y1="1625" x2="5499.999" y2="1625"/><line class="b" x1="5249.999" y1="1625" x2="5249.999" y2="1750"/><line class="b" x1="5374.999" y1="1625" x2="5249.999" y2="1625"/><line class="b" x1="5374.999" y1="1625" x2="5374.999" y2="1500"/><line class="b" x1="5249.999" y1="1625" x2="5124.999" y2="1625"/><line class="b" x1="1624.999" y1="750" x2="1624.999" y2="875"/><line class="b" x1="4499.999" y1="1125" x2="4624.999" y2="1125"/><line class="b" x1="4749.999" y1="1250" x2="4624.999" y2="1250"/><line class="b" x1="4874.999" y1="1375" x2="4749.999" y2="1375"/><line class="b" x1="4999.999" y1="1625" x2="5124.999" y2="1625"/><line class="b" x1="5124.999" y1="1625" x2="5124.999" y2="1500"/><line class="b" x1="4999.999" y1="1500" x2="4874.999" y2="1500"/><line class="b" x1="1874.999" y1="1250" x2="1999.999" y2="1250"/><line class="b" x1="2999.999" y1="750" x2="2999.999" y2="625"/><line class="b" x1="2124.999" y1="1375" x2="1999.999" y2="1375"/><line class="b" x1="1749.999" y1="1125" x2="1749.999" y2="1250"/><line class="b" x1="2749.999" y1="625" x2="2749.999" y2="750"/><line class="b" x1="1499.999" y1="1125" x2="1499.999" y2="1250"/><line class="b" x1="1249.999" y1="1125" x2="1249.999" y2="1250"/><line class="b" x1="3374.999" y1="1750" x2="3499.999" y2="1750"/><line class="b" x1="3249.999" y1="1625" x2="3249.999" y2="1750"/><line class="b" x1="2124.999" y1="1500" x2="2249.999" y2="1500"/><line class="b" x1="2249.999" y1="1625" x2="2374.999" y2="1625"/><line class="b" x1="3624.999" y1="2000" x2="3749.999" y2="2000"/><line class="b" x1="3624.999" y1="2000" x2="3499.999" y2="2000"/><line class="b" x1="3499.999" y1="1875" x2="3624.999" y2="1875"/><line class="b" x1="2499.999" y1="750" x2="2499.999" y2="625"/><line class="b" x1="2499.999" y1="1750" x2="2499.999" y2="1625"/><line class="b" x1="2999.999" y1="1750" x2="2999.999" y2="1625"/><line class="b" x1="2749.999" y1="1625" x2="2749.999" y2="1750"/><line class="b" x1="5499.999" y1="2000" x2="5499.999" y2="1875"/><line class="b" x1="5374.999" y1="2000" x2="5499.999" y2="2000"/><line class="b" x1="5374.999" y1="2000" x2="5249.999" y2="2000"/><line class="b" x1="5374.999" y1="1875" x2="5499.999" y2="1875"/><line class="b" x1="749.999" y1="875" x2="624.999" y2="875"/><line class="b" x1="874.999" y1="750" x2="749.999" y2="750"/><line class="b" x1="874.999" y1="625" x2="999.999" y2="625"/><line class="b" x1="3999.999" y1="625" x2="3874.999" y2="625"/><line class="b" x1="3749.999" y1="750" x2="3749.999" y2="625"/><line class="b" x1="499.999" y1="1125" x2="374.999" y2="1125"/><line class="b" x1="499.999" y1="1000" x2="624.999" y2="1000"/><line class="b" x1="3249.999" y1="750" x2="3249.999" y2="625"/><line class="b" x1="3499.999" y1="625" x2="3499.999" y2="750"/><line class="b" x1="1874.999" y1="375" x2="1749.999" y2="375"/><line class="b" x1="2249.999" y1="625" x2="2249.999" y2="750"/><line class="b" x1="499.999" y1="1125" x2="499.999" y2="1250"/><line class="b" x1="624.999" y1="1125" x2="499.999" y2="1125"/><line class="b" x1="999.999" y1="1250" x2="999.999" y2="1125"/><line class="b" x1="749.999" y1="1125" x2="749.999" y2="1250"/><line class="b" x1="1999.999" y1="500" x2="1874.999" y2="500"/><line class="b" x1="2124.999" y1="625" x2="1999.999" y2="625"/><line class="b" x1="1749.999" y1="250" x2="1624.999" y2="250"/><line class="b" x1="999.999" y1="500" x2="1124.999" y2="500"/><line class="b" x1="1249.999" y1="375" x2="1124.999" y2="375"/><line class="b" x1="1499.999" y1="250" x2="1499.999" y2="125"/><line class="b" x1="1249.999" y1="250" x2="1374.999" y2="250"/><line class="b" x1="4249.999" y1="750" x2="4124.999" y2="750"/><line class="b" x1="4124.999" y1="625" x2="3999.999" y2="625"/><line class="b" x1="3999.999" y1="625" x2="3999.999" y2="750"/><line class="b" x1="4249.999" y1="1250" x2="4124.999" y2="1250"/><line class="b" x1="4374.999" y1="1375" x2="4249.999" y2="1375"/><line class="b" x1="4124.999" y1="1125" x2="3999.999" y2="1125"/><line class="b" x1="3999.999" y1="1000" x2="3874.999" y2="1000"/><line class="b" x1="3749.999" y1="875" x2="3749.999" y2="1000"/><line class="b" x1="5374.999" y1="1750" x2="5249.999" y2="1750"/><line class="b" x1="5374.999" y1="1875" x2="5374.999" y2="1750"/><line class="b" x1="5249.999" y1="1750" x2="5124.999" y2="1750"/><line class="b" x1="5374.999" y1="1875" x2="5249.999" y2="1875"/><line class="b" x1="4499.999" y1="2000" x2="4624.999" y2="2000"/><line class="b" x1="4749.999" y1="2000" x2="4624.999" y2="2000"/><line class="b" x1="1624.999" y1="875" x2="1749.999" y2="875"/><line class="b" x1="1624.999" y1="875" x2="1499.999" y2="875"/><line class="b" x1="1374.999" y1="875" x2="1499.999" y2="875"/><line class="b" x1="1249.999" y1="875" x2="1249.999" y2="1000"/><line class="b" x1="1499.999" y1="875" x2="1499.999" y2="1000"/><line class="b" x1="4749.999" y1="1875" x2="4624.999" y2="1875"/><line class="b" x1="4749.999" y1="1750" x2="4624.999" y2="1750"/><line class="b" x1="3499.999" y1="1000" x2="3499.999" y2="875"/><line class="b" x1="2749.999" y1="1500" x2="2749.999" y2="1375"/><line class="b" x1="2499.999" y1="1375" x2="2624.999" y2="1375"/><line class="b" x1="2374.999" y1="1250" x2="2499.999" y2="1250"/><line class="b" x1="1749.999" y1="875" x2="1874.999" y2="875"/><line class="b" x1="1749.999" y1="875" x2="1749.999" y2="1000"/><line class="b" x1="2999.999" y1="1375" x2="2999.999" y2="1500"/><line class="b" x1="3249.999" y1="1500" x2="3249.999" y2="1375"/><line class="b" x1="2749.999" y1="1000" x2="2749.999" y2="875"/><line class="b" x1="3249.999" y1="1000" x2="3249.999" y2="875"/><line class="b" x1="2999.999" y1="875" x2="2999.999" y2="1000"/><line class="b" x1="1999.999" y1="875" x2="1999.999" y2="1000"/><line class="b" x1="3499.999" y1="1375" x2="3499.999" y2="1500"/><line class="b" x1="2499.999" y1="875" x2="2499.999" y2="1000"/><line class="b" x1="2249.999" y1="1000" x2="2249.999" y2="875"/><line class="b" x1="2249.999" y1="1125" x2="2374.999" y2="1125"/><line class="b" x1="2124.999" y1="1000" x2="2249.999" y2="1000"/><line class="b" x1="2249.999" y1="1000" x2="2374.999" y2="1000"/><line class="b" x1="4124.999" y1="1250" x2="4124.999" y2="1375"/><line class="b" x1="4124.999" y1="1250" x2="3999.999" y2="1250"/><line class="b" x1="2999.999" y1="1250" x2="2999.999" y2="1125"/><line class="b" x1="3249.999" y1="1125" x2="3249.999" y2="1250"/><line class="b" x1="4249.999" y1="1375" x2="4124.999" y2="1375"/><line class="b" x1="4249.999" y1="1375" x2="4249.999" y2="1500"/><line class="b" x1="3999.999" y1="1375" x2="4124.999" y2="1375"/><line class="b" x1="2374.999" y1="1125" x2="2499.999" y2="1125"/><line class="b" x1="2624.999" y1="1000" x2="2499.999" y2="1000"/><line class="b" x1="2499.999" y1="1000" x2="2374.999" y2="1000"/><line class="b" x1="2374.999" y1="1125" x2="2374.999" y2="1000"/><line class="b" x1="2749.999" y1="1000" x2="2874.999" y2="1000"/><line class="b" x1="2624.999" y1="1000" x2="2749.999" y2="1000"/><line class="b" x1="2749.999" y1="1125" x2="2874.999" y2="1125"/><line class="b" x1="2624.999" y1="1000" x2="2624.999" y2="1125"/><line class="b" x1="3499.999" y1="1250" x2="3499.999" y2="1125"/><line class="b" x1="2999.999" y1="1000" x2="2874.999" y2="1000"/><line class="b" x1="3124.999" y1="1000" x2="2999.999" y2="1000"/><line class="b" x1="2874.999" y1="1125" x2="2999.999" y2="1125"/><line class="b" x1="3124.999" y1="1125" x2="2999.999" y2="1125"/><line class="b" x1="2874.999" y1="1125" x2="2874.999" y2="1000"/><line class="b" x1="3499.999" y1="1000" x2="3624.999" y2="1000"/><line class="b" x1="3499.999" y1="1000" x2="3374.999" y2="1000"/><line class="b" x1="3374.999" y1="1125" x2="3499.999" y2="1125"/><line class="b" x1="3624.999" y1="1125" x2="3499.999" y2="1125"/><line class="b" x1="3249.999" y1="1000" x2="3374.999" y2="1000"/><line class="b" x1="3124.999" y1="1000" x2="3249.999" y2="1000"/><line class="b" x1="3249.999" y1="1125" x2="3124.999" y2="1125"/><line class="b" x1="3249.999" y1="1125" x2="3374.999" y2="1125"/><line class="b" x1="3124.999" y1="1000" x2="3124.999" y2="1125"/><line class="b" x1="3374.999" y1="1125" x2="3374.999" y2="1000"/><line class="b" x1="3999.999" y1="1125" x2="3999.999" y2="1250"/><line class="b" x1="3999.999" y1="1125" x2="3874.999" y2="1125"/><line class="b" x1="3874.999" y1="1250" x2="3999.999" y2="1250"/><line class="b" x1="3749.999" y1="1250" x2="3749.999" y2="1125"/><line class="b" x1="3874.999" y1="1000" x2="3749.999" y2="1000"/><line class="b" x1="3874.999" y1="1000" x2="3874.999" y2="1125"/><line class="b" x1="3624.999" y1="1000" x2="3749.999" y2="1000"/><line class="b" x1="3624.999" y1="1125" x2="3749.999" y2="1125"/><line class="b" x1="3624.999" y1="1125" x2="3624.999" y2="1000"/><line class="b" x1="3749.999" y1="1125" x2="3874.999" y2="1125"/><line class="b" x1="2999.999" y1="1375" x2="2874.999" y2="1375"/><line class="b" x1="2999.999" y1="1375" x2="3124.999" y2="1375"/><line class="b" x1="2874.999" y1="1250" x2="2999.999" y2="1250"/><line class="b" x1="2999.999" y1="1250" x2="3124.999" y2="1250"/><line class="b" x1="4499.999" y1="1625" x2="4499.999" y2="1750"/><line class="b" x1="4249.999" y1="1750" x2="4249.999" y2="1625"/><line class="b" x1="3749.999" y1="1500" x2="3749.999" y2="1375"/><line class="b" x1="3874.999" y1="1375" x2="3999.999" y2="1375"/><line class="b" x1="3999.999" y1="1500" x2="3999.999" y2="1375"/><line class="b" x1="3999.999" y1="1500" x2="4124.999" y2="1500"/><line class="b" x1="4124.999" y1="1625" x2="3999.999" y2="1625"/><line class="b" x1="3999.999" y1="1500" x2="3874.999" y2="1500"/><line class="b" x1="2499.999" y1="1250" x2="2499.999" y2="1125"/><line class="b" x1="2499.999" y1="1250" x2="2624.999" y2="1250"/><line class="b" x1="2749.999" y1="1125" x2="2749.999" y2="1250"/><line class="b" x1="2624.999" y1="1125" x2="2499.999" y2="1125"/><line class="b" x1="2749.999" y1="1125" x2="2624.999" y2="1125"/><line class="b" x1="4499.999" y1="2000" x2="4374.999" y2="2000"/><line class="b" x1="4249.999" y1="2000" x2="4374.999" y2="2000"/><line class="b" x1="4499.999" y1="2000" x2="4499.999" y2="1875"/><line class="b" x1="4249.999" y1="1750" x2="4124.999" y2="1750"/><line class="b" x1="4249.999" y1="1750" x2="4374.999" y2="1750"/><line class="b" x1="4374.999" y1="1875" x2="4249.999" y2="1875"/><line class="b" x1="4499.999" y1="1875" x2="4624.999" y2="1875"/><line class="b" x1="4624.999" y1="1750" x2="4624.999" y2="1875"/><line class="b" x1="4624.999" y1="1750" x2="4499.999" y2="1750"/><line class="b" x1="4374.999" y1="1750" x2="4499.999" y2="1750"/><line class="b" x1="4374.999" y1="1875" x2="4499.999" y2="1875"/><line class="b" x1="4374.999" y1="1875" x2="4374.999" y2="1750"/><line class="b" x1="4374.999" y1="1500" x2="4249.999" y2="1500"/><line class="b" x1="4124.999" y1="1500" x2="4249.999" y2="1500"/><line class="b" x1="4124.999" y1="1625" x2="4249.999" y2="1625"/><line class="b" x1="4249.999" y1="1625" x2="4374.999" y2="1625"/><line class="b" x1="4124.999" y1="1625" x2="4124.999" y2="1500"/><line class="b" x1="2874.999" y1="1375" x2="2749.999" y2="1375"/><line class="b" x1="2624.999" y1="1375" x2="2749.999" y2="1375"/><line class="b" x1="2624.999" y1="1375" x2="2624.999" y2="1250"/><line class="b" x1="2874.999" y1="1250" x2="2749.999" y2="1250"/><line class="b" x1="2874.999" y1="1250" x2="2874.999" y2="1375"/><line class="b" x1="2749.999" y1="1250" x2="2624.999" y2="1250"/><line class="b" x1="3374.999" y1="1375" x2="3249.999" y2="1375"/><line class="b" x1="3124.999" y1="1375" x2="3249.999" y2="1375"/><line class="b" x1="3249.999" y1="1250" x2="3124.999" y2="1250"/><line class="b" x1="3374.999" y1="1250" x2="3249.999" y2="1250"/><line class="b" x1="3124.999" y1="1375" x2="3124.999" y2="1250"/><line class="b" x1="3624.999" y1="1375" x2="3749.999" y2="1375"/><line class="b" x1="3874.999" y1="1375" x2="3874.999" y2="1250"/><line class="b" x1="3749.999" y1="1250" x2="3624.999" y2="1250"/><line class="b" x1="3749.999" y1="1250" x2="3874.999" y2="1250"/><line class="b" x1="3874.999" y1="1375" x2="3749.999" y2="1375"/><line class="b" x1="3499.999" y1="1375" x2="3374.999" y2="1375"/><line class="b" x1="3499.999" y1="1375" x2="3624.999" y2="1375"/><line class="b" x1="3374.999" y1="1250" x2="3499.999" y2="1250"/><line class="b" x1="3499.999" y1="1250" x2="3624.999" y2="1250"/><line class="b" x1="3374.999" y1="1250" x2="3374.999" y2="1375"/><line class="b" x1="3624.999" y1="1375" x2="3624.999" y2="1250"/><line class="b" x1="4499.999" y1="1500" x2="4374.999" y2="1500"/><line class="b" x1="4624.999" y1="1625" x2="4499.999" y2="1625"/><line class="b" x1="4499.999" y1="1625" x2="4374.999" y2="1625"/><line class="b" x1="4374.999" y1="1500" x2="4374.999" y2="1625"/><line class="b" x1="999.999" y1="1125" x2="1124.999" y2="1125"/><line class="b" x1="874.999" y1="1125" x2="999.999" y2="1125"/><line class="b" x1="999.999" y1="1000" x2="1124.999" y2="1000"/><line class="b" x1="874.999" y1="875" x2="874.999" y2="750"/><line class="b" x1="874.999" y1="750" x2="999.999" y2="750"/><line class="b" x1="999.999" y1="875" x2="1124.999" y2="875"/><line class="b" x1="749.999" y1="875" x2="749.999" y2="1000"/><line class="b" x1="874.999" y1="875" x2="749.999" y2="875"/><line class="b" x1="999.999" y1="1000" x2="999.999" y2="875"/><line class="b" x1="874.999" y1="1000" x2="999.999" y2="1000"/><line class="b" x1="874.999" y1="875" x2="999.999" y2="875"/><line class="b" x1="749.999" y1="1000" x2="624.999" y2="1000"/><line class="b" x1="624.999" y1="1125" x2="624.999" y2="1000"/><line class="b" x1="749.999" y1="1125" x2="624.999" y2="1125"/><line class="b" x1="874.999" y1="1125" x2="749.999" y2="1125"/><line class="b" x1="874.999" y1="1125" x2="874.999" y2="1000"/><line class="b" x1="874.999" y1="1000" x2="749.999" y2="1000"/><line class="b" x1="1249.999" y1="1125" x2="1124.999" y2="1125"/><line class="b" x1="1249.999" y1="1125" x2="1374.999" y2="1125"/><line class="b" x1="1249.999" y1="1000" x2="1124.999" y2="1000"/><line class="b" x1="1249.999" y1="1000" x2="1374.999" y2="1000"/><line class="b" x1="1124.999" y1="1000" x2="1124.999" y2="1125"/><line class="b" x1="1624.999" y1="1125" x2="1499.999" y2="1125"/><line class="b" x1="1374.999" y1="1125" x2="1499.999" y2="1125"/><line class="b" x1="1624.999" y1="1000" x2="1499.999" y2="1000"/><line class="b" x1="1374.999" y1="1000" x2="1499.999" y2="1000"/><line class="b" x1="1374.999" y1="1125" x2="1374.999" y2="1000"/><line class="b" x1="1624.999" y1="375" x2="1749.999" y2="375"/><line class="b" x1="1749.999" y1="500" x2="1749.999" y2="375"/><line class="b" x1="1874.999" y1="1125" x2="1749.999" y2="1125"/><line class="b" x1="1624.999" y1="1125" x2="1749.999" y2="1125"/><line class="b" x1="1624.999" y1="1000" x2="1749.999" y2="1000"/><line class="b" x1="1874.999" y1="1000" x2="1749.999" y2="1000"/><line class="b" x1="1624.999" y1="1000" x2="1624.999" y2="1125"/><line class="b" x1="999.999" y1="625" x2="1124.999" y2="625"/><line class="b" x1="999.999" y1="750" x2="999.999" y2="625"/><line class="b" x1="999.999" y1="750" x2="1124.999" y2="750"/><line class="b" x1="1749.999" y1="500" x2="1874.999" y2="500"/><line class="b" x1="1874.999" y1="625" x2="1874.999" y2="500"/><line class="b" x1="1624.999" y1="500" x2="1749.999" y2="500"/><line class="b" x1="1624.999" y1="375" x2="1624.999" y2="250"/><line class="b" x1="1499.999" y1="250" x2="1624.999" y2="250"/><line class="b" x1="1374.999" y1="375" x2="1374.999" y2="250"/><line class="b" x1="1374.999" y1="250" x2="1499.999" y2="250"/><line class="b" x1="1499.999" y1="375" x2="1624.999" y2="375"/><line class="b" x1="1124.999" y1="500" x2="1124.999" y2="625"/><line class="b" x1="1249.999" y1="500" x2="1124.999" y2="500"/><line class="b" x1="1249.999" y1="625" x2="1124.999" y2="625"/><line class="b" x1="1249.999" y1="375" x2="1374.999" y2="375"/><line class="b" x1="1249.999" y1="375" x2="1249.999" y2="500"/><line class="b" x1="1499.999" y1="375" x2="1499.999" y2="500"/><line class="b" x1="1374.999" y1="375" x2="1499.999" y2="375"/><line class="b" x1="1249.999" y1="500" x2="1374.999" y2="500"/><line class="b" x1="1999.999" y1="1125" x2="1999.999" y2="1250"/><line class="b" x1="2124.999" y1="1250" x2="1999.999" y2="1250"/><line class="b" x1="2249.999" y1="1125" x2="2249.999" y2="1250"/><line class="b" x1="2124.999" y1="1125" x2="2249.999" y2="1125"/><line class="b" x1="3499.999" y1="1750" x2="3624.999" y2="1750"/><line class="b" x1="3499.999" y1="1750" x2="3499.999" y2="1625"/><line class="b" x1="3374.999" y1="1625" x2="3499.999" y2="1625"/><line class="b" x1="3499.999" y1="1500" x2="3374.999" y2="1500"/><line class="b" x1="3624.999" y1="1500" x2="3499.999" y2="1500"/><line class="b" x1="3624.999" y1="1625" x2="3499.999" y2="1625"/><line class="b" x1="3624.999" y1="1875" x2="3624.999" y2="1750"/><line class="b" x1="3624.999" y1="1875" x2="3749.999" y2="1875"/><line class="b" x1="3749.999" y1="1750" x2="3624.999" y2="1750"/><line class="b" x1="3249.999" y1="1625" x2="3374.999" y2="1625"/><line class="b" x1="3249.999" y1="1625" x2="3124.999" y2="1625"/><line class="b" x1="3249.999" y1="1500" x2="3374.999" y2="1500"/><line class="b" x1="3124.999" y1="1500" x2="3249.999" y2="1500"/><line class="b" x1="3374.999" y1="1625" x2="3374.999" y2="1500"/><line class="b" x1="1874.999" y1="1125" x2="1999.999" y2="1125"/><line class="b" x1="1874.999" y1="1000" x2="1999.999" y2="1000"/><line class="b" x1="2124.999" y1="1000" x2="1999.999" y2="1000"/><line class="b" x1="2124.999" y1="1000" x2="2124.999" y2="1125"/><line class="b" x1="1874.999" y1="1000" x2="1874.999" y2="1125"/><line class="b" x1="1999.999" y1="1125" x2="2124.999" y2="1125"/><line class="b" x1="4999.999" y1="2000" x2="5124.999" y2="2000"/><line class="b" x1="5249.999" y1="2000" x2="5124.999" y2="2000"/><line class="b" x1="5249.999" y1="1875" x2="5249.999" y2="2000"/><line class="b" x1="5249.999" y1="1875" x2="5124.999" y2="1875"/><line class="b" x1="3999.999" y1="2000" x2="3874.999" y2="2000"/><line class="b" x1="3749.999" y1="2000" x2="3874.999" y2="2000"/><line class="b" x1="3749.999" y1="2000" x2="3749.999" y2="1875"/><line class="b" x1="3874.999" y1="1875" x2="3749.999" y2="1875"/><line class="b" x1="2124.999" y1="1375" x2="2124.999" y2="1250"/><line class="b" x1="2124.999" y1="1375" x2="2249.999" y2="1375"/><line class="b" x1="2374.999" y1="1250" x2="2249.999" y2="1250"/><line class="b" x1="2374.999" y1="1250" x2="2374.999" y2="1375"/><line class="b" x1="2124.999" y1="1250" x2="2249.999" y2="1250"/><line class="b" x1="5249.999" y1="1500" x2="5124.999" y2="1500"/><line class="b" x1="4999.999" y1="1500" x2="4999.999" y2="1375"/><line class="b" x1="4999.999" y1="1500" x2="5124.999" y2="1500"/><line class="b" x1="2249.999" y1="1500" x2="2249.999" y2="1375"/><line class="b" x1="2249.999" y1="1500" x2="2374.999" y2="1500"/><line class="b" x1="2499.999" y1="1375" x2="2499.999" y2="1500"/><line class="b" x1="2499.999" y1="1375" x2="2374.999" y2="1375"/><line class="b" x1="2249.999" y1="1375" x2="2374.999" y2="1375"/><line class="b" x1="2749.999" y1="1625" x2="2624.999" y2="1625"/><line class="b" x1="2749.999" y1="1625" x2="2874.999" y2="1625"/><line class="b" x1="2749.999" y1="1500" x2="2874.999" y2="1500"/><line class="b" x1="2624.999" y1="1500" x2="2749.999" y2="1500"/><line class="b" x1="3124.999" y1="1625" x2="2999.999" y2="1625"/><line class="b" x1="2874.999" y1="1625" x2="2999.999" y2="1625"/><line class="b" x1="2999.999" y1="1500" x2="2874.999" y2="1500"/><line class="b" x1="3124.999" y1="1500" x2="2999.999" y2="1500"/><line class="b" x1="3124.999" y1="1500" x2="3124.999" y2="1625"/><line class="b" x1="2874.999" y1="1625" x2="2874.999" y2="1500"/><line class="b" x1="2374.999" y1="1625" x2="2499.999" y2="1625"/><line class="b" x1="2374.999" y1="1625" x2="2374.999" y2="1500"/><line class="b" x1="2624.999" y1="1625" x2="2499.999" y2="1625"/><line class="b" x1="2624.999" y1="1500" x2="2499.999" y2="1500"/><line class="b" x1="2499.999" y1="1500" x2="2374.999" y2="1500"/><line class="b" x1="2624.999" y1="1500" x2="2624.999" y2="1625"/><line class="b" x1="2374.999" y1="750" x2="2249.999" y2="750"/><line class="b" x1="2249.999" y1="750" x2="2124.999" y2="750"/><line class="b" x1="2124.999" y1="875" x2="2249.999" y2="875"/><line class="b" x1="2374.999" y1="875" x2="2249.999" y2="875"/><line class="b" x1="4999.999" y1="1750" x2="4999.999" y2="1625"/><line class="b" x1="4999.999" y1="1625" x2="4874.999" y2="1625"/><line class="b" x1="4874.999" y1="1750" x2="4749.999" y2="1750"/><line class="b" x1="4749.999" y1="1625" x2="4749.999" y2="1750"/><line class="b" x1="4999.999" y1="1750" x2="5124.999" y2="1750"/><line class="b" x1="5124.999" y1="1875" x2="5124.999" y2="1750"/><line class="b" x1="4874.999" y1="1750" x2="4874.999" y2="1875"/><line class="b" x1="4999.999" y1="1875" x2="5124.999" y2="1875"/><line class="b" x1="4999.999" y1="1750" x2="4874.999" y2="1750"/><line class="b" x1="4999.999" y1="2000" x2="4874.999" y2="2000"/><line class="b" x1="4874.999" y1="2000" x2="4749.999" y2="2000"/><line class="b" x1="4749.999" y1="1875" x2="4749.999" y2="2000"/><line class="b" x1="4874.999" y1="1875" x2="4749.999" y2="1875"/><line class="b" x1="4999.999" y1="2000" x2="4999.999" y2="1875"/><line class="b" x1="4999.999" y1="1875" x2="4874.999" y2="1875"/><line class="b" x1="4874.999" y1="1500" x2="4749.999" y2="1500"/><line class="b" x1="4874.999" y1="1500" x2="4874.999" y2="1625"/><line class="b" x1="4749.999" y1="1625" x2="4624.999" y2="1625"/><line class="b" x1="4624.999" y1="1625" x2="4624.999" y2="1500"/><line class="b" x1="4874.999" y1="1625" x2="4749.999" y2="1625"/><line class="b" x1="4749.999" y1="1375" x2="4624.999" y2="1375"/><line class="b" x1="4749.999" y1="1375" x2="4749.999" y2="1500"/><line class="b" x1="4499.999" y1="1500" x2="4499.999" y2="1375"/><line class="b" x1="4499.999" y1="1500" x2="4624.999" y2="1500"/><line class="b" x1="4749.999" y1="1500" x2="4624.999" y2="1500"/><line class="b" x1="4624.999" y1="1375" x2="4624.999" y2="1250"/><line class="b" x1="4499.999" y1="1250" x2="4624.999" y2="1250"/><line class="b" x1="4374.999" y1="1375" x2="4374.999" y2="1250"/><line class="b" x1="4499.999" y1="1375" x2="4374.999" y2="1375"/><line class="b" x1="4499.999" y1="1375" x2="4624.999" y2="1375"/><line class="b" x1="3999.999" y1="1750" x2="4124.999" y2="1750"/><line class="b" x1="4124.999" y1="1875" x2="4124.999" y2="1750"/><line class="b" x1="3874.999" y1="1750" x2="3874.999" y2="1875"/><line class="b" x1="3999.999" y1="1875" x2="3874.999" y2="1875"/><line class="b" x1="4124.999" y1="2000" x2="3999.999" y2="2000"/><line class="b" x1="4124.999" y1="2000" x2="4249.999" y2="2000"/><line class="b" x1="4249.999" y1="2000" x2="4249.999" y2="1875"/><line class="b" x1="4124.999" y1="1875" x2="4249.999" y2="1875"/><line class="b" x1="3999.999" y1="1875" x2="3999.999" y2="2000"/><line class="b" x1="3999.999" y1="1875" x2="4124.999" y2="1875"/><line class="b" x1="1624.999" y1="500" x2="1499.999" y2="500"/><line class="b" x1="1624.999" y1="500" x2="1624.999" y2="625"/><line class="b" x1="1374.999" y1="625" x2="1374.999" y2="500"/><line class="b" x1="1374.999" y1="500" x2="1499.999" y2="500"/><line class="b" x1="1374.999" y1="875" x2="1374.999" y2="750"/><line class="b" x1="1249.999" y1="875" x2="1124.999" y2="875"/><line class="b" x1="1249.999" y1="875" x2="1374.999" y2="875"/><line class="b" x1="1124.999" y1="750" x2="1124.999" y2="875"/><line class="b" x1="1249.999" y1="750" x2="1124.999" y2="750"/><line class="b" x1="1374.999" y1="750" x2="1499.999" y2="750"/><line class="b" x1="1249.999" y1="625" x2="1249.999" y2="750"/><line class="b" x1="1249.999" y1="625" x2="1374.999" y2="625"/><line class="b" x1="1374.999" y1="625" x2="1499.999" y2="625"/><line class="b" x1="1249.999" y1="750" x2="1374.999" y2="750"/><line class="b" x1="4499.999" y1="1125" x2="4374.999" y2="1125"/><line class="b" x1="4499.999" y1="1250" x2="4499.999" y2="1125"/><line class="b" x1="4249.999" y1="1250" x2="4374.999" y2="1250"/><line class="b" x1="4249.999" y1="1250" x2="4249.999" y2="1125"/><line class="b" x1="4499.999" y1="1250" x2="4374.999" y2="1250"/><line class="b" x1="3999.999" y1="1750" x2="3999.999" y2="1625"/><line class="b" x1="3874.999" y1="1625" x2="3999.999" y2="1625"/><line class="b" x1="3749.999" y1="1625" x2="3749.999" y2="1750"/><line class="b" x1="3874.999" y1="1750" x2="3749.999" y2="1750"/><line class="b" x1="3874.999" y1="1750" x2="3999.999" y2="1750"/><line class="b" x1="3249.999" y1="750" x2="3124.999" y2="750"/><line class="b" x1="3249.999" y1="750" x2="3374.999" y2="750"/><line class="b" x1="3374.999" y1="875" x2="3249.999" y2="875"/><line class="b" x1="3124.999" y1="875" x2="3249.999" y2="875"/><line class="b" x1="3624.999" y1="1500" x2="3749.999" y2="1500"/><line class="b" x1="3749.999" y1="1500" x2="3874.999" y2="1500"/><line class="b" x1="3874.999" y1="1625" x2="3874.999" y2="1500"/><line class="b" x1="3749.999" y1="1625" x2="3624.999" y2="1625"/><line class="b" x1="3624.999" y1="1500" x2="3624.999" y2="1625"/><line class="b" x1="3749.999" y1="1625" x2="3874.999" y2="1625"/><line class="b" x1="4374.999" y1="1000" x2="4249.999" y2="1000"/><line class="b" x1="4374.999" y1="1000" x2="4374.999" y2="1125"/><line class="b" x1="4124.999" y1="1125" x2="4249.999" y2="1125"/><line class="b" x1="4124.999" y1="1125" x2="4124.999" y2="1000"/><line class="b" x1="4374.999" y1="1125" x2="4249.999" y2="1125"/><line class="b" x1="2874.999" y1="750" x2="2749.999" y2="750"/><line class="b" x1="2749.999" y1="750" x2="2624.999" y2="750"/><line class="b" x1="2874.999" y1="875" x2="2749.999" y2="875"/><line class="b" x1="2624.999" y1="875" x2="2749.999" y2="875"/><line class="b" x1="1874.999" y1="750" x2="1874.999" y2="875"/><line class="b" x1="1999.999" y1="750" x2="2124.999" y2="750"/><line class="b" x1="1999.999" y1="875" x2="1874.999" y2="875"/><line class="b" x1="1999.999" y1="875" x2="2124.999" y2="875"/><line class="b" x1="2124.999" y1="875" x2="2124.999" y2="750"/><line class="b" x1="1874.999" y1="750" x2="1749.999" y2="750"/><line class="b" x1="1999.999" y1="750" x2="1999.999" y2="625"/><line class="b" x1="1874.999" y1="625" x2="1999.999" y2="625"/><line class="b" x1="1749.999" y1="625" x2="1874.999" y2="625"/><line class="b" x1="1874.999" y1="750" x2="1999.999" y2="750"/><line class="b" x1="2999.999" y1="750" x2="3124.999" y2="750"/><line class="b" x1="2874.999" y1="750" x2="2999.999" y2="750"/><line class="b" x1="2999.999" y1="875" x2="2874.999" y2="875"/><line class="b" x1="2999.999" y1="875" x2="3124.999" y2="875"/><line class="b" x1="3124.999" y1="875" x2="3124.999" y2="750"/><line class="b" x1="2874.999" y1="750" x2="2874.999" y2="875"/><line class="b" x1="2499.999" y1="750" x2="2624.999" y2="750"/><line class="b" x1="2374.999" y1="750" x2="2499.999" y2="750"/><line class="b" x1="2499.999" y1="875" x2="2624.999" y2="875"/><line class="b" x1="2499.999" y1="875" x2="2374.999" y2="875"/><line class="b" x1="2374.999" y1="750" x2="2374.999" y2="875"/><line class="b" x1="2624.999" y1="875" x2="2624.999" y2="750"/><line class="b" x1="4124.999" y1="750" x2="4124.999" y2="875"/><line class="b" x1="3874.999" y1="750" x2="3999.999" y2="750"/><line class="b" x1="4124.999" y1="750" x2="3999.999" y2="750"/><line class="b" x1="3874.999" y1="875" x2="3999.999" y2="875"/><line class="b" x1="4249.999" y1="875" x2="4124.999" y2="875"/><line class="b" x1="4249.999" y1="875" x2="4249.999" y2="1000"/><line class="b" x1="3999.999" y1="1000" x2="3999.999" y2="875"/><line class="b" x1="3999.999" y1="1000" x2="4124.999" y2="1000"/><line class="b" x1="4124.999" y1="1000" x2="4249.999" y2="1000"/><line class="b" x1="3999.999" y1="875" x2="4124.999" y2="875"/><line class="b" x1="1624.999" y1="750" x2="1749.999" y2="750"/><line class="b" x1="1624.999" y1="750" x2="1499.999" y2="750"/><line class="b" x1="1624.999" y1="625" x2="1749.999" y2="625"/><line class="b" x1="1624.999" y1="625" x2="1499.999" y2="625"/><line class="b" x1="1499.999" y1="625" x2="1499.999" y2="750"/><line class="b" x1="1749.999" y1="625" x2="1749.999" y2="750"/><line class="b" x1="3749.999" y1="750" x2="3624.999" y2="750"/><line class="b" x1="3749.999" y1="750" x2="3874.999" y2="750"/><line class="b" x1="3874.999" y1="875" x2="3749.999" y2="875"/><line class="b" x1="3749.999" y1="875" x2="3624.999" y2="875"/><line class="b" x1="3874.999" y1="875" x2="3874.999" y2="750"/><line class="b" x1="3624.999" y1="750" x2="3499.999" y2="750"/><line class="b" x1="3374.999" y1="750" x2="3499.999" y2="750"/><line class="b" x1="3499.999" y1="875" x2="3624.999" y2="875"/><line class="b" x1="3374.999" y1="875" x2="3499.999" y2="875"/><line class="b" x1="3374.999" y1="875" x2="3374.999" y2="750"/><line class="b" x1="3624.999" y1="750" x2="3624.999" y2="875"/><line class="b" x1="3124.999" y1="625" x2="3249.999" y2="625"/><line class="b" x1="3249.999" y1="625" x2="3374.999" y2="625"/><line class="b" x1="-0.001" y1="875" x2="-0.001" y2="750"/><line class="b" x1="-0.001" y1="625" x2="-0.001" y2="750"/><line class="b" x1="124.999" y1="750" x2="-0.001" y2="750"/><line class="b" x1="124.999" y1="625" x2="249.999" y2="625"/><line class="b" x1="124.999" y1="2000" x2="249.999" y2="2000"/><line class="b" x1="249.999" y1="1875" x2="124.999" y2="1875"/><line class="b" x1="749.999" x2="624.999"/><line class="b" x1="874.999" x2="749.999"/><line class="b" x1="2374.999" y1="250" x2="2499.999" y2="250"/><line class="b" x1="2249.999" x2="2374.999"/><line class="b" x1="2124.999" x2="2249.999"/><line class="b" x1="2249.999" y1="125" x2="2374.999" y2="125"/><line class="b" x1="249.999" y1="1750" x2="374.999" y2="1750"/><line class="b" x1="749.999" y1="125" x2="624.999" y2="125"/><line class="b" x1="499.999" y1="250" x2="624.999" y2="250"/><line class="b" x1="374.999" y1="500" x2="249.999" y2="500"/><line class="b" x1="499.999" y1="375" x2="374.999" y2="375"/><line class="b" x1="1874.999" y1="2000" x2="1999.999" y2="2000"/><line class="b" x1="1874.999" y1="2000" x2="1749.999" y2="2000"/><line class="b" x1="1874.999" y1="1875" x2="1749.999" y2="1875"/><line class="b" x1="5499.999" y1="1125" x2="5499.999" y2="1000"/><line class="b" x1="5499.999" y1="1000" x2="5499.999" y2="875"/><line class="b" x1="5374.999" y1="1000" x2="5499.999" y2="1000"/><line class="b" x1="5374.999" y1="875" x2="5249.999" y2="875"/><line class="b" x1="499.999" y1="1625" x2="374.999" y2="1625"/><line class="b" x1="874.999" y1="1625" x2="874.999" y2="1500"/><line class="b" x1="624.999" y1="1625" x2="624.999" y2="1500"/><line class="b" x1="1124.999" y1="1500" x2="1124.999" y2="1625"/><line class="b" x1="1374.999" y1="1625" x2="1374.999" y2="1500"/><line class="b" x1="1624.999" y1="1750" x2="1749.999" y2="1750"/><line class="b" x1="1624.999" y1="1625" x2="1499.999" y2="1625"/><line class="b" x1="4999.999" x2="4874.999"/><line class="b" x1="4999.999" x2="5124.999"/><line class="b" x1="5499.999" y1="1375" x2="5499.999" y2="1250"/><line class="b" x1="5499.999" y1="1250" x2="5499.999" y2="1125"/><line class="b" x1="5374.999" y1="1125" x2="5499.999" y2="1125"/><line class="b" x1="5374.999" y1="1250" x2="5499.999" y2="1250"/><line class="b" x1="2624.999" y1="375" x2="2624.999" y2="250"/><line class="b" x1="3124.999" y1="2000" x2="2999.999" y2="2000"/><line class="b" x1="3124.999" y1="2000" x2="3249.999" y2="2000"/><line class="b" x1="5374.999" y1="1125" x2="5374.999" y2="1000"/><line class="b" x1="5374.999" y1="1000" x2="5249.999" y2="1000"/><line class="b" x1="5374.999" y1="1125" x2="5249.999" y2="1125"/><line class="b" x1="2624.999" y1="2000" x2="2749.999" y2="2000"/><line class="b" x1="2499.999" y1="2000" x2="2624.999" y2="2000"/><line class="b" x1="1874.999" y1="1750" x2="1874.999" y2="1875"/><line class="b" x1="1874.999" y1="1875" x2="1999.999" y2="1875"/><line class="b" x1="2124.999" y1="2000" x2="1999.999" y2="2000"/><line class="b" x1="2124.999" y1="2000" x2="2249.999" y2="2000"/><line class="b" x1="1999.999" y1="2000" x2="1999.999" y2="1875"/><line class="b" x1="2124.999" y1="1875" x2="1999.999" y2="1875"/><line class="b" x1="5124.999" y1="875" x2="5124.999" y2="750"/><line class="b" x1="2249.999" y1="2000" x2="2374.999" y2="2000"/><line class="b" x1="2499.999" y1="2000" x2="2374.999" y2="2000"/><line class="b" x1="2499.999" y1="1875" x2="2499.999" y2="2000"/><line class="b" x1="2249.999" y1="2000" x2="2249.999" y2="1875"/><line class="b" x1="2999.999" y1="2000" x2="2874.999" y2="2000"/><line class="b" x1="2749.999" y1="2000" x2="2874.999" y2="2000"/><line class="b" x1="2999.999" y1="1875" x2="2999.999" y2="2000"/><line class="b" x1="2749.999" y1="2000" x2="2749.999" y2="1875"/><line class="b" x1="5249.999" y1="875" x2="5124.999" y2="875"/><line class="b" x1="5249.999" y1="875" x2="5249.999" y2="1000"/><line class="b" x1="5249.999" y1="1000" x2="5124.999" y2="1000"/><line class="b" x1="4999.999" y1="875" x2="5124.999" y2="875"/><line class="b" x1="3624.999" y1="250" x2="3499.999" y2="250"/><line class="b" x1="2874.999" y1="375" x2="2874.999" y2="250"/><line class="b" x1="3374.999" y1="375" x2="3374.999" y2="250"/><line class="b" x1="3124.999" y1="250" x2="3124.999" y2="375"/><line class="b" x1="4999.999" y1="750" x2="4874.999" y2="750"/><line class="b" x1="3749.999" x2="3624.999"/><line class="b" x1="3874.999" x2="3749.999"/><line class="b" x1="3624.999" y1="125" x2="3749.999" y2="125"/><line class="b" x1="5249.999" y1="750" x2="5124.999" y2="750"/><line class="b" x1="4999.999" y1="750" x2="5124.999" y2="750"/><line class="b" x1="4999.999" y1="750" x2="4999.999" y2="625"/><line class="b" x1="4874.999" y1="625" x2="4749.999" y2="625"/><line class="b" x1="4749.999" y1="500" x2="4624.999" y2="500"/><line class="b" x1="4749.999" y1="375" x2="4624.999" y2="375"/><line class="b" x1="4999.999" y1="125" x2="4874.999" y2="125"/><line class="b" x1="4874.999" y1="250" x2="4749.999" y2="250"/><line class="b" x1="374.999" y1="2000" x2="249.999" y2="2000"/><line class="b" x1="499.999" y1="2000" x2="374.999" y2="2000"/><line class="b" x1="374.999" y1="1875" x2="249.999" y2="1875"/><line class="b" x1="249.999" y1="1875" x2="249.999" y2="2000"/><line class="b" x1="2874.999" x2="2749.999"/><line class="b" x1="2624.999" x2="2749.999"/><line class="b" x1="5374.999" x2="5499.999"/><line class="b" x1="5499.999" y1="125" x2="5499.999"/><line class="b" x1="3124.999" x2="3249.999"/><line class="b" x1="3374.999" x2="3249.999"/><line class="b" x1="2999.999" x2="3124.999"/><line class="b" x1="2999.999" x2="2874.999"/><line class="b" x1="2874.999" x2="2874.999" y2="125"/><line class="b" x1="3124.999" y1="125" x2="3124.999"/><line class="b" x1="124.999" x2="249.999"/><line class="b" x1="374.999" x2="249.999"/><line class="b" x1="-0.001" y1="125" x2="-0.001" y2="250"/><line class="b" x1="124.999" y1="125" x2="249.999" y2="125"/><line class="b" x1="5499.999" y1="875" x2="5499.999" y2="750"/><line class="b" x1="5374.999" y1="875" x2="5374.999" y2="750"/><line class="b" x1="5374.999" y1="875" x2="5499.999" y2="875"/><line class="b" x1="5249.999" y1="625" x2="5124.999" y2="625"/><line class="b" x1="5499.999" y1="250" x2="5499.999" y2="125"/><line class="b" x1="5374.999" y1="125" x2="5499.999" y2="125"/><line class="b" x1="-0.001" y1="375" x2="-0.001" y2="250"/><line class="b" x1="124.999" y1="250" x2="-0.001" y2="250"/><line class="b" x1="5374.999" y1="250" x2="5249.999" y2="250"/><line class="b" x1="5249.999" y1="500" x2="5124.999" y2="500"/><line class="b" x1="5249.999" y1="375" x2="5124.999" y2="375"/><line class="b" x1="5499.999" y1="750" x2="5499.999" y2="625"/><line class="b" x1="5374.999" y1="750" x2="5249.999" y2="750"/><line class="b" x1="5249.999" y1="625" x2="5249.999" y2="750"/><line class="b" x1="5374.999" y1="750" x2="5499.999" y2="750"/><line class="b" x1="5374.999" y1="625" x2="5249.999" y2="625"/><line class="b" x1="124.999" x2="-0.001"/><line class="b" x1="-0.001" x2="-0.001" y2="125"/><line class="b" x1="124.999" y1="125" x2="124.999"/><line class="b" x1="124.999" y1="125" x2="-0.001" y2="125"/><line class="b" x1="5499.999" y1="500" x2="5499.999" y2="375"/><line class="b" x1="5374.999" y1="500" x2="5249.999" y2="500"/><line class="b" x1="5374.999" y1="375" x2="5249.999" y2="375"/><line class="b" x1="5249.999" y1="375" x2="5249.999" y2="500"/><line class="b" x1="5499.999" y1="375" x2="5499.999" y2="250"/><line class="b" x1="5374.999" y1="250" x2="5499.999" y2="250"/><line class="b" x1="5374.999" y1="375" x2="5374.999" y2="250"/><line class="b" x1="5374.999" y1="375" x2="5499.999" y2="375"/><line class="b" x1="999.999" y1="2000" x2="874.999" y2="2000"/><line class="b" x1="874.999" y1="2000" x2="749.999" y2="2000"/><line class="b" x1="999.999" y1="2000" x2="1124.999" y2="2000"/><line class="b" x1="1249.999" y1="2000" x2="1124.999" y2="2000"/><line class="b" x1="999.999" y1="2000" x2="999.999" y2="1875"/><line class="b" x1="874.999" y1="1875" x2="999.999" y2="1875"/><line class="b" x1="999.999" y1="1875" x2="1124.999" y2="1875"/><line class="b" x1="874.999" y1="1875" x2="749.999" y2="1875"/><line class="b" x1="874.999" y1="1875" x2="874.999" y2="1750"/><line class="b" x1="624.999" y1="2000" x2="749.999" y2="2000"/><line class="b" x1="499.999" y1="2000" x2="624.999" y2="2000"/><line class="b" x1="499.999" y1="2000" x2="499.999" y2="1875"/><line class="b" x1="749.999" y1="1875" x2="749.999" y2="2000"/><line class="b" x1="749.999" y1="1875" x2="624.999" y2="1875"/><line class="b" x1="1249.999" y1="1875" x2="1124.999" y2="1875"/><line class="b" x1="1124.999" y1="1750" x2="1124.999" y2="1875"/><line class="b" x1="1249.999" y1="2000" x2="1374.999" y2="2000"/><line class="b" x1="1374.999" y1="2000" x2="1499.999" y2="2000"/><line class="b" x1="1249.999" y1="1875" x2="1249.999" y2="2000"/><line class="b" x1="1249.999" y1="1875" x2="1374.999" y2="1875"/><line class="b" x1="5499.999" y1="625" x2="5499.999" y2="500"/><line class="b" x1="5374.999" y1="625" x2="5374.999" y2="500"/><line class="b" x1="5374.999" y1="625" x2="5499.999" y2="625"/><line class="b" x1="5374.999" y1="500" x2="5499.999" y2="500"/><line class="b" x1="1624.999" y1="1750" x2="1624.999" y2="1875"/><line class="b" x1="1624.999" y1="1750" x2="1499.999" y2="1750"/><line class="b" x1="1374.999" y1="1875" x2="1374.999" y2="1750"/><line class="b" x1="1374.999" y1="1875" x2="1499.999" y2="1875"/><line class="b" x1="2749.999" y1="250" x2="2874.999" y2="250"/><line class="b" x1="2874.999" y1="250" x2="2999.999" y2="250"/><line class="b" x1="2749.999" y1="125" x2="2874.999" y2="125"/><line class="b" x1="2999.999" y1="125" x2="2874.999" y2="125"/><line class="b" x1="3374.999" y1="250" x2="3499.999" y2="250"/><line class="b" x1="3499.999" y1="125" x2="3499.999" y2="250"/><line class="b" x1="3249.999" y1="250" x2="3374.999" y2="250"/><line class="b" x1="3249.999" y1="125" x2="3374.999" y2="125"/><line class="b" x1="499.999" x2="624.999"/><line class="b" x1="499.999" x2="374.999"/><line class="b" x1="624.999" y1="125" x2="624.999"/><line class="b" x1="499.999" y1="125" x2="624.999" y2="125"/><line class="b" x1="374.999" x2="374.999" y2="125"/><line class="b" x1="2499.999" x2="2374.999"/><line class="b" x1="2499.999" x2="2624.999"/><line class="b" x1="2374.999" y1="125" x2="2499.999" y2="125"/><line class="b" x1="2374.999" y1="125" x2="2374.999"/><line class="b" x1="2624.999" y1="125" x2="2624.999"/><line class="b" x1="2499.999" y1="250" x2="2624.999" y2="250"/><line class="b" x1="2499.999" y1="250" x2="2499.999" y2="125"/><line class="b" x1="2749.999" y1="250" x2="2624.999" y2="250"/><line class="b" x1="2624.999" y1="125" x2="2749.999" y2="125"/><line class="b" x1="2749.999" y1="250" x2="2749.999" y2="125"/><line class="b" x1="2624.999" y1="125" x2="2499.999" y2="125"/><line class="b" x1="3124.999" y1="250" x2="2999.999" y2="250"/><line class="b" x1="3249.999" y1="250" x2="3124.999" y2="250"/><line class="b" x1="3124.999" y1="125" x2="3249.999" y2="125"/><line class="b" x1="3124.999" y1="125" x2="2999.999" y2="125"/><line class="b" x1="2999.999" y1="125" x2="2999.999" y2="250"/><line class="b" x1="3249.999" y1="250" x2="3249.999" y2="125"/><line class="b" x1="4749.999" y1="375" x2="4749.999" y2="500"/><line class="b" x1="4874.999" y1="500" x2="4749.999" y2="500"/><line class="b" x1="4874.999" y1="375" x2="4749.999" y2="375"/><line class="b" x1="4999.999" y1="500" x2="4999.999" y2="375"/><line class="b" x1="4874.999" y1="250" x2="4874.999" y2="375"/><line class="b" x1="4999.999" y1="250" x2="4874.999" y2="250"/><line class="b" x1="5124.999" y1="375" x2="5124.999" y2="250"/><line class="b" x1="4999.999" y1="375" x2="5124.999" y2="375"/><line class="b" x1="4999.999" y1="375" x2="4874.999" y2="375"/><line class="b" x1="3499.999" x2="3624.999"/><line class="b" x1="3499.999" x2="3374.999"/><line class="b" x1="3624.999" y1="125" x2="3499.999" y2="125"/><line class="b" x1="3624.999" y1="125" x2="3624.999"/><line class="b" x1="3374.999" x2="3374.999" y2="125"/><line class="b" x1="3499.999" y1="125" x2="3374.999" y2="125"/><line class="b" x1="4999.999" y1="125" x2="5124.999" y2="125"/><line class="b" x1="4999.999" y1="250" x2="4999.999" y2="125"/><line class="b" x1="5249.999" y1="125" x2="5249.999" y2="250"/><line class="b" x1="5249.999" y1="250" x2="5124.999" y2="250"/><line class="b" x1="4999.999" y1="250" x2="5124.999" y2="250"/><line class="b" x1="5374.999" x2="5249.999"/><line class="b" x1="5249.999" x2="5124.999"/><line class="b" x1="5124.999" y1="125" x2="5124.999"/><line class="b" x1="5374.999" y1="125" x2="5374.999"/><line class="b" x1="5374.999" y1="125" x2="5249.999" y2="125"/><line class="b" x1="5249.999" y1="125" x2="5124.999" y2="125"/><line class="b" x1="374.999" y1="250" x2="374.999" y2="375"/><line class="b" x1="374.999" y1="375" x2="249.999" y2="375"/><line class="b" x1="249.999" y1="250" x2="124.999" y2="250"/><line class="b" x1="124.999" y1="250" x2="124.999" y2="375"/><line class="b" x1="999.999" y1="1625" x2="1124.999" y2="1625"/><line class="b" x1="1249.999" y1="1625" x2="1124.999" y2="1625"/><line class="b" x1="999.999" y1="1750" x2="1124.999" y2="1750"/><line class="b" x1="1249.999" y1="1750" x2="1124.999" y2="1750"/><line class="b" x1="874.999" y1="1625" x2="999.999" y2="1625"/><line class="b" x1="874.999" y1="1625" x2="749.999" y2="1625"/><line class="b" x1="874.999" y1="1750" x2="999.999" y2="1750"/><line class="b" x1="874.999" y1="1750" x2="749.999" y2="1750"/><line class="b" x1="999.999" y1="1750" x2="999.999" y2="1625"/><line class="b" x1="499.999" y1="250" x2="374.999" y2="250"/><line class="b" x1="499.999" y1="250" x2="499.999" y2="125"/><line class="b" x1="374.999" y1="125" x2="249.999" y2="125"/><line class="b" x1="249.999" y1="250" x2="249.999" y2="125"/><line class="b" x1="499.999" y1="125" x2="374.999" y2="125"/><line class="b" x1="374.999" y1="250" x2="249.999" y2="250"/><line class="b" x1="1374.999" y1="1625" x2="1499.999" y2="1625"/><line class="b" x1="1249.999" y1="1625" x2="1374.999" y2="1625"/><line class="b" x1="1499.999" y1="1625" x2="1499.999" y2="1750"/><line class="b" x1="1249.999" y1="1750" x2="1374.999" y2="1750"/><line class="b" x1="1374.999" y1="1750" x2="1499.999" y2="1750"/><line class="b" x1="1249.999" y1="1625" x2="1249.999" y2="1750"/><line class="b" x1="4999.999" y1="625" x2="4874.999" y2="625"/><line class="b" x1="4999.999" y1="625" x2="5124.999" y2="625"/><line class="b" x1="4874.999" y1="500" x2="4874.999" y2="625"/><line class="b" x1="5124.999" y1="625" x2="5124.999" y2="500"/><line class="b" x1="4999.999" y1="500" x2="5124.999" y2="500"/><line class="b" x1="4999.999" y1="500" x2="4874.999" y2="500"/><line class="b" x1="499.999" y1="1625" x2="499.999" y2="1750"/><line class="b" x1="624.999" y1="1625" x2="499.999" y2="1625"/><line class="b" x1="624.999" y1="1625" x2="749.999" y2="1625"/><line class="b" x1="749.999" y1="1750" x2="624.999" y2="1750"/><line class="b" x1="749.999" y1="1750" x2="749.999" y2="1625"/><line class="b" x1="374.999" y1="1875" x2="374.999" y2="1750"/><line class="b" x1="374.999" y1="1750" x2="499.999" y2="1750"/><line class="b" x1="374.999" y1="1875" x2="499.999" y2="1875"/><line class="b" x1="624.999" y1="1750" x2="624.999" y2="1875"/><line class="b" x1="499.999" y1="1875" x2="624.999" y2="1875"/><line class="b" x1="624.999" y1="1750" x2="499.999" y2="1750"/><line class="b" x1="-0.001" y1="500" x2="-0.001" y2="375"/><line class="b" x1="124.999" y1="500" x2="249.999" y2="500"/><line class="b" x1="249.999" y1="375" x2="249.999" y2="500"/><line class="b" x1="-0.001" y1="375" x2="124.999" y2="375"/><line class="b" x1="249.999" y1="375" x2="124.999" y2="375"/><line class="b" x1="1624.999" y1="2000" x2="1749.999" y2="2000"/><line class="b" x1="1624.999" y1="2000" x2="1499.999" y2="2000"/><line class="b" x1="1624.999" y1="1875" x2="1749.999" y2="1875"/><line class="b" x1="1749.999" y1="1875" x2="1749.999" y2="2000"/><line class="b" x1="1499.999" y1="1875" x2="1499.999" y2="2000"/><line class="b" x1="1624.999" y1="1875" x2="1499.999" y2="1875"/><line class="b" x1="1874.999" y1="1750" x2="1749.999" y2="1750"/><line class="b" x1="1749.999" y1="1625" x2="1749.999" y2="1750"/><line class="b" x1="1874.999" y1="1750" x2="1999.999" y2="1750"/><line class="b" x1="-0.001" y1="500" x2="-0.001" y2="625"/><line class="b" x1="124.999" y1="625" x2="124.999" y2="500"/><line class="b" x1="124.999" y1="625" x2="-0.001" y2="625"/><line class="b" x1="-0.001" y1="500" x2="124.999" y2="500"/><line class="b" x1="3124.999" y1="625" x2="2999.999" y2="625"/><line class="b" x1="2874.999" y1="625" x2="2999.999" y2="625"/><line class="b" x1="3124.999" y1="625" x2="3124.999" y2="500"/><line class="b" x1="499.999" y1="1000" x2="499.999" y2="875"/><line class="b" x1="499.999" y1="1000" x2="374.999" y2="1000"/><line class="b" x1="499.999" y1="875" x2="624.999" y2="875"/><line class="b" x1="624.999" y1="875" x2="624.999" y2="750"/><line class="b" x1="499.999" y1="875" x2="374.999" y2="875"/><line class="b" x1="749.999" y1="750" x2="624.999" y2="750"/><line class="b" x1="749.999" y1="625" x2="749.999" y2="750"/><line class="b" x1="499.999" y1="750" x2="624.999" y2="750"/><line class="b" x1="-0.001" y1="1125" x2="-0.001" y2="1250"/><line class="b" x1="249.999" y1="1250" x2="249.999" y2="1125"/><line class="b" x1="1624.999" x2="1749.999"/><line class="b" x1="1749.999" x2="1874.999"/><line class="b" x1="1749.999" y1="125" x2="1624.999" y2="125"/><line class="b" x1="-0.001" y1="1375" x2="-0.001" y2="1250"/><line class="b" x1="124.999" y1="1250" x2="-0.001" y2="1250"/><line class="b" x1="874.999" y1="625" x2="874.999" y2="500"/><line class="b" x1="874.999" y1="625" x2="749.999" y2="625"/><line class="b" x1="749.999" y1="625" x2="624.999" y2="625"/><line class="b" x1="1249.999" x2="1374.999"/><line class="b" x1="1249.999" x2="1124.999"/><line class="b" x1="1249.999" y1="125" x2="1374.999" y2="125"/><line class="b" x1="1624.999" x2="1499.999"/><line class="b" x1="1374.999" x2="1499.999"/><line class="b" x1="1624.999" y1="125" x2="1499.999" y2="125"/><line class="b" x1="1374.999" y1="125" x2="1499.999" y2="125"/><line class="b" x1="1624.999" x2="1624.999" y2="125"/><line class="b" x1="1374.999" y1="125" x2="1374.999"/><line class="b" x1="1124.999" y1="250" x2="1124.999" y2="375"/><line class="b" x1="999.999" y1="375" x2="1124.999" y2="375"/><line class="b" x1="1249.999" y1="250" x2="1124.999" y2="250"/><line class="b" x1="1249.999" y1="125" x2="1249.999" y2="250"/><line class="b" x1="1249.999" y1="125" x2="1124.999" y2="125"/><line class="b" x1="999.999" y1="250" x2="1124.999" y2="250"/><line class="b" x1="874.999" y1="500" x2="999.999" y2="500"/><line class="b" x1="999.999" y1="500" x2="999.999" y2="375"/><line class="b" x1="874.999" y1="500" x2="749.999" y2="500"/><line class="b" x1="874.999" y1="375" x2="999.999" y2="375"/><line class="b" x1="249.999" y1="1125" x2="374.999" y2="1125"/><line class="b" x1="374.999" y1="1000" x2="374.999" y2="1125"/><line class="b" x1="374.999" y1="1000" x2="249.999" y2="1000"/><line class="b" x1="124.999" y1="1125" x2="249.999" y2="1125"/><line class="b" x1="1874.999" y1="1250" x2="1749.999" y2="1250"/><line class="b" x1="1874.999" y1="1250" x2="1874.999" y2="1375"/><line class="b" x1="1624.999" y1="1250" x2="1749.999" y2="1250"/><line class="b" x1="1624.999" y1="1250" x2="1499.999" y2="1250"/><line class="b" x1="1374.999" y1="1250" x2="1499.999" y2="1250"/><line class="b" x1="1624.999" y1="1250" x2="1624.999" y2="1375"/><line class="b" x1="1874.999" y1="1375" x2="1999.999" y2="1375"/><line class="b" x1="1999.999" y1="1500" x2="1999.999" y2="1375"/><line class="b" x1="1874.999" y1="1375" x2="1749.999" y2="1375"/><line class="b" x1="2124.999" y1="1500" x2="1999.999" y2="1500"/><line class="b" x1="2124.999" y1="1625" x2="2124.999" y2="1500"/><line class="b" x1="1874.999" y1="1625" x2="1999.999" y2="1625"/><line class="b" x1="1874.999" y1="1500" x2="1999.999" y2="1500"/><line class="b" x1="1249.999" y1="1250" x2="1124.999" y2="1250"/><line class="b" x1="1249.999" y1="1250" x2="1374.999" y2="1250"/><line class="b" x1="1374.999" y1="1375" x2="1374.999" y2="1250"/><line class="b" x1="374.999" y1="1250" x2="499.999" y2="1250"/><line class="b" x1="624.999" y1="1250" x2="499.999" y2="1250"/><line class="b" x1="249.999" y1="1250" x2="374.999" y2="1250"/><line class="b" x1="249.999" y1="1250" x2="124.999" y2="1250"/><line class="b" x1="124.999" y1="1250" x2="124.999" y2="1375"/><line class="b" x1="374.999" y1="1375" x2="374.999" y2="1250"/><line class="b" x1="-0.001" y1="1500" x2="-0.001" y2="1375"/><line class="b" x1="-0.001" y1="1375" x2="124.999" y2="1375"/><line class="b" x1="249.999" y1="1375" x2="124.999" y2="1375"/><line class="b" x1="-0.001" y1="1500" x2="-0.001" y2="1625"/><line class="b" x1="-0.001" y1="1500" x2="124.999" y2="1500"/><line class="b" x1="749.999" y1="1250" x2="624.999" y2="1250"/><line class="b" x1="874.999" y1="1250" x2="749.999" y2="1250"/><line class="b" x1="624.999" y1="1250" x2="624.999" y2="1375"/><line class="b" x1="999.999" y1="1250" x2="1124.999" y2="1250"/><line class="b" x1="874.999" y1="1250" x2="999.999" y2="1250"/><line class="b" x1="1124.999" y1="1250" x2="1124.999" y2="1375"/><line class="b" x1="874.999" y1="1375" x2="874.999" y2="1250"/><line class="b" x1="1874.999" y1="250" x2="1749.999" y2="250"/><line class="b" x1="1749.999" y1="125" x2="1749.999" y2="250"/><line class="b" x1="1749.999" y1="125" x2="1874.999" y2="125"/><line class="b" x1="1624.999" y1="1500" x2="1624.999" y2="1625"/><line class="b" x1="1624.999" y1="1625" x2="1749.999" y2="1625"/><line class="b" x1="1874.999" y1="1625" x2="1749.999" y2="1625"/><line class="b" x1="1874.999" y1="1500" x2="1749.999" y2="1500"/><line class="b" x1="1874.999" y1="1500" x2="1874.999" y2="1625"/><line class="b" x1="4124.999" y1="500" x2="3999.999" y2="500"/><line class="b" x1="4124.999" y1="375" x2="4249.999" y2="375"/><line class="b" x1="4374.999" y1="250" x2="4249.999" y2="250"/><line class="b" x1="4124.999" x2="4249.999"/><line class="b" x1="4374.999" x2="4249.999"/><line class="b" x1="4374.999" y1="125" x2="4249.999" y2="125"/><line class="b" x1="4499.999" x2="4624.999"/><line class="b" x1="4499.999" x2="4374.999"/><line class="b" x1="4499.999" y1="125" x2="4374.999" y2="125"/><line class="b" x1="4374.999" x2="4374.999" y2="125"/><line class="b" x1="4374.999" y1="750" x2="4249.999" y2="750"/><line class="b" x1="4249.999" y1="750" x2="4249.999" y2="625"/><line class="b" x1="4624.999" y1="1125" x2="4624.999" y2="1000"/><line class="b" x1="4749.999" y1="1125" x2="4624.999" y2="1125"/><line class="b" x1="4874.999" y1="1250" x2="4749.999" y2="1250"/><line class="b" x1="4749.999" y1="1125" x2="4749.999" y2="1250"/><line class="b" x1="4874.999" y1="1125" x2="4749.999" y2="1125"/><line class="b" x1="4499.999" y1="1000" x2="4499.999" y2="875"/><line class="b" x1="4499.999" y1="1000" x2="4624.999" y2="1000"/><line class="b" x1="4749.999" y1="1000" x2="4624.999" y2="1000"/><line class="b" x1="4374.999" y1="750" x2="4374.999" y2="875"/><line class="b" x1="4499.999" y1="875" x2="4374.999" y2="875"/><line class="b" x1="4499.999" y1="750" x2="4374.999" y2="750"/><line class="b" x1="4499.999" y1="875" x2="4624.999" y2="875"/><line class="b" x1="1999.999" y1="375" x2="1999.999" y2="500"/><line class="b" x1="2124.999" y1="500" x2="1999.999" y2="500"/><line class="b" x1="2624.999" y1="625" x2="2499.999" y2="625"/><line class="b" x1="2374.999" y1="625" x2="2499.999" y2="625"/><line class="b" x1="2249.999" y1="625" x2="2374.999" y2="625"/><line class="b" x1="2249.999" y1="625" x2="2124.999" y2="625"/><line class="b" x1="2124.999" y1="500" x2="2124.999" y2="625"/><line class="b" x1="2124.999" y1="500" x2="2249.999" y2="500"/><line class="b" x1="2374.999" y1="625" x2="2374.999" y2="500"/><line class="b" x1="2749.999" y1="625" x2="2874.999" y2="625"/><line class="b" x1="2749.999" y1="625" x2="2624.999" y2="625"/><line class="b" x1="2874.999" y1="625" x2="2874.999" y2="500"/><line class="b" x1="2624.999" y1="500" x2="2624.999" y2="625"/><line class="b" x1="1874.999" y1="250" x2="1874.999" y2="375"/><line class="b" x1="1999.999" y1="375" x2="1874.999" y2="375"/><line class="b" x1="1874.999" y1="250" x2="1999.999" y2="250"/><line class="b" x1="1999.999" y1="375" x2="2124.999" y2="375"/><line class="b" x1="2249.999" y1="1750" x2="2249.999" y2="1625"/><line class="b" x1="2124.999" y1="1625" x2="2249.999" y2="1625"/><line class="b" x1="2124.999" y1="1750" x2="1999.999" y2="1750"/><line class="b" x1="1999.999" y1="1750" x2="1999.999" y2="1625"/><line class="b" x1="2124.999" y1="1625" x2="1999.999" y2="1625"/><line class="b" x1="3999.999" y1="500" x2="3874.999" y2="500"/><line class="b" x1="3999.999" y1="500" x2="3999.999" y2="375"/><line class="b" x1="4124.999" y1="375" x2="4124.999" y2="250"/><line class="b" x1="4124.999" y1="375" x2="3999.999" y2="375"/><line class="b" x1="3874.999" y1="375" x2="3999.999" y2="375"/><line class="b" x1="4124.999" y1="250" x2="4249.999" y2="250"/><line class="b" x1="4249.999" y1="250" x2="4249.999" y2="125"/><line class="b" x1="4124.999" y1="125" x2="4249.999" y2="125"/><line class="b" x1="4124.999" y1="250" x2="3999.999" y2="250"/><line class="b" x1="4874.999" y1="1250" x2="4874.999" y2="1375"/><line class="b" x1="4999.999" y1="1375" x2="4874.999" y2="1375"/><line class="b" x1="4999.999" y1="1375" x2="5124.999" y2="1375"/><line class="b" x1="4999.999" y1="1250" x2="4874.999" y2="1250"/><line class="b" x1="3624.999" y1="625" x2="3499.999" y2="625"/><line class="b" x1="3499.999" y1="625" x2="3374.999" y2="625"/><line class="b" x1="3374.999" y1="500" x2="3374.999" y2="625"/><line class="b" x1="3874.999" y1="500" x2="3874.999" y2="625"/><line class="b" x1="3624.999" y1="625" x2="3749.999" y2="625"/><line class="b" x1="3749.999" y1="625" x2="3874.999" y2="625"/><line class="b" x1="3874.999" y1="500" x2="3749.999" y2="500"/><line class="b" x1="3624.999" y1="625" x2="3624.999" y2="500"/><line class="b" x1="4124.999" y1="625" x2="4124.999" y2="500"/><line class="b" x1="4124.999" y1="625" x2="4249.999" y2="625"/><line class="b" x1="4124.999" y1="500" x2="4249.999" y2="500"/><line class="b" x1="4374.999" y1="625" x2="4249.999" y2="625"/><line class="b" x1="624.999" y1="375" x2="624.999" y2="250"/><line class="b" x1="749.999" y1="250" x2="624.999" y2="250"/><line class="b" x1="874.999" y1="375" x2="874.999" y2="250"/><line class="b" x1="874.999" y1="375" x2="749.999" y2="375"/><line class="b" x1="499.999" y1="375" x2="624.999" y2="375"/><line class="b" x1="499.999" y1="500" x2="499.999" y2="375"/><line class="b" x1="749.999" y1="500" x2="624.999" y2="500"/><line class="b" x1="749.999" y1="375" x2="749.999" y2="500"/><line class="b" x1="749.999" y1="375" x2="624.999" y2="375"/><line class="b" x1="124.999" y1="750" x2="124.999" y2="875"/><line class="b" x1="249.999" y1="750" x2="124.999" y2="750"/><line class="b" x1="374.999" y1="875" x2="249.999" y2="875"/><line class="b" x1="374.999" y1="875" x2="374.999" y2="750"/><line class="b" x1="999.999" x2="1124.999"/><line class="b" x1="874.999" x2="999.999"/><line class="b" x1="874.999" y1="125" x2="874.999"/><line class="b" x1="1124.999" x2="1124.999" y2="125"/><line class="b" x1="999.999" y1="125" x2="1124.999" y2="125"/><line class="b" x1="374.999" y1="500" x2="374.999" y2="625"/><line class="b" x1="499.999" y1="500" x2="374.999" y2="500"/><line class="b" x1="499.999" y1="625" x2="624.999" y2="625"/><line class="b" x1="624.999" y1="625" x2="624.999" y2="500"/><line class="b" x1="499.999" y1="500" x2="624.999" y2="500"/><line class="b" x1="374.999" y1="625" x2="249.999" y2="625"/><line class="b" x1="249.999" y1="750" x2="249.999" y2="625"/><line class="b" x1="499.999" y1="750" x2="374.999" y2="750"/><line class="b" x1="499.999" y1="750" x2="499.999" y2="625"/><line class="b" x1="249.999" y1="750" x2="374.999" y2="750"/><line class="b" x1="499.999" y1="625" x2="374.999" y2="625"/><line class="b" x1="874.999" y1="125" x2="749.999" y2="125"/><line class="b" x1="749.999" y1="125" x2="749.999" y2="250"/><line class="b" x1="874.999" y1="250" x2="999.999" y2="250"/><line class="b" x1="999.999" y1="250" x2="999.999" y2="125"/><line class="b" x1="874.999" y1="250" x2="749.999" y2="250"/><line class="b" x1="874.999" y1="125" x2="999.999" y2="125"/><line class="b" x1="2499.999" y1="375" x2="2374.999" y2="375"/><line class="b" x1="2249.999" y1="500" x2="2249.999" y2="375"/><line class="b" x1="2499.999" y1="500" x2="2374.999" y2="500"/><line class="b" x1="2249.999" y1="500" x2="2374.999" y2="500"/><line class="b" x1="2499.999" y1="375" x2="2624.999" y2="375"/><line class="b" x1="2624.999" y1="375" x2="2749.999" y2="375"/><line class="b" x1="2624.999" y1="500" x2="2499.999" y2="500"/><line class="b" x1="2624.999" y1="500" x2="2749.999" y2="500"/><line class="b" x1="2499.999" y1="375" x2="2499.999" y2="500"/><line class="b" x1="1999.999" x2="1874.999"/><line class="b" x1="2124.999" x2="1999.999"/><line class="b" x1="2124.999" x2="2124.999" y2="125"/><line class="b" x1="1874.999" y1="125" x2="1874.999"/><line class="b" x1="1874.999" y1="125" x2="1999.999" y2="125"/><line class="b" x1="2249.999" y1="125" x2="2249.999" y2="250"/><line class="b" x1="2249.999" y1="125" x2="2124.999" y2="125"/><line class="b" x1="1999.999" y1="250" x2="1999.999" y2="125"/><line class="b" x1="1999.999" y1="250" x2="2124.999" y2="250"/><line class="b" x1="2124.999" y1="125" x2="1999.999" y2="125"/><line class="b" x1="2374.999" y1="250" x2="2374.999" y2="375"/><line class="b" x1="2374.999" y1="250" x2="2249.999" y2="250"/><line class="b" x1="2124.999" y1="375" x2="2249.999" y2="375"/><line class="b" x1="2124.999" y1="375" x2="2124.999" y2="250"/><line class="b" x1="2374.999" y1="375" x2="2249.999" y2="375"/><line class="b" x1="2249.999" y1="250" x2="2124.999" y2="250"/><line class="b" x1="-0.001" y1="1875" x2="-0.001" y2="1750"/><line class="b" x1="124.999" y1="1750" x2="124.999" y2="1875"/><polyline class="b" points="124.999 1875 -0.001 1875 -0.001 2000 124.999 2000"/><line class="b" x1="-0.001" y1="1000" x2="-0.001" y2="875"/><line class="b" x1="-0.001" y1="875" x2="124.999" y2="875"/><line class="b" x1="249.999" y1="875" x2="249.999" y2="1000"/><line class="b" x1="124.999" y1="1000" x2="249.999" y2="1000"/><line class="b" x1="249.999" y1="875" x2="124.999" y2="875"/><line class="b" x1="999.999" y1="1500" x2="1124.999" y2="1500"/><line class="b" x1="1249.999" y1="1500" x2="1124.999" y2="1500"/><line class="b" x1="1249.999" y1="1375" x2="1124.999" y2="1375"/><line class="b" x1="999.999" y1="1375" x2="1124.999" y2="1375"/><line class="b" x1="499.999" y1="1500" x2="624.999" y2="1500"/><line class="b" x1="749.999" y1="1500" x2="624.999" y2="1500"/><line class="b" x1="499.999" y1="1375" x2="624.999" y2="1375"/><line class="b" x1="749.999" y1="1375" x2="624.999" y2="1375"/><line class="b" x1="1374.999" y1="1500" x2="1499.999" y2="1500"/><line class="b" x1="1249.999" y1="1500" x2="1374.999" y2="1500"/><line class="b" x1="1374.999" y1="1375" x2="1499.999" y2="1375"/><line class="b" x1="1249.999" y1="1375" x2="1374.999" y2="1375"/><line class="b" x1="1249.999" y1="1375" x2="1249.999" y2="1500"/><line class="b" x1="1624.999" y1="1500" x2="1499.999" y2="1500"/><line class="b" x1="1624.999" y1="1375" x2="1749.999" y2="1375"/><line class="b" x1="1624.999" y1="1375" x2="1499.999" y2="1375"/><line class="b" x1="1749.999" y1="1375" x2="1749.999" y2="1500"/><line class="b" x1="1624.999" y1="1500" x2="1749.999" y2="1500"/><line class="b" x1="1499.999" y1="1375" x2="1499.999" y2="1500"/><line class="b" x1="874.999" y1="1500" x2="999.999" y2="1500"/><line class="b" x1="874.999" y1="1500" x2="749.999" y2="1500"/><line class="b" x1="874.999" y1="1375" x2="749.999" y2="1375"/><line class="b" x1="874.999" y1="1375" x2="999.999" y2="1375"/><line class="b" x1="999.999" y1="1500" x2="999.999" y2="1375"/><line class="b" x1="749.999" y1="1375" x2="749.999" y2="1500"/><line class="b" x1="499.999" y1="1500" x2="374.999" y2="1500"/><line class="b" x1="374.999" y1="1375" x2="499.999" y2="1375"/><line class="b" x1="374.999" y1="1375" x2="249.999" y2="1375"/><line class="b" x1="249.999" y1="1375" x2="249.999" y2="1500"/><line class="b" x1="499.999" y1="1500" x2="499.999" y2="1375"/><line class="b" x1="-0.001" y1="1000" x2="-0.001" y2="1125"/><line class="b" x1="124.999" y1="1125" x2="-0.001" y2="1125"/><line class="b" x1="124.999" y1="1125" x2="124.999" y2="1000"/><line class="b" x1="-0.001" y1="1000" x2="124.999" y2="1000"/><line class="b" x1="2874.999" y1="375" x2="2749.999" y2="375"/><line class="b" x1="2874.999" y1="375" x2="2999.999" y2="375"/><line class="b" x1="2999.999" y1="500" x2="2874.999" y2="500"/><line class="b" x1="2749.999" y1="500" x2="2874.999" y2="500"/><line class="b" x1="2749.999" y1="500" x2="2749.999" y2="375"/><line class="b" x1="-0.001" y1="1625" x2="-0.001" y2="1750"/><line class="b" x1="249.999" y1="1750" x2="124.999" y2="1750"/><line class="b" x1="249.999" y1="1750" x2="249.999" y2="1625"/><line class="b" x1="124.999" y1="1625" x2="-0.001" y2="1625"/><line class="b" x1="124.999" y1="1750" x2="-0.001" y2="1750"/><line class="b" x1="249.999" y1="1625" x2="374.999" y2="1625"/><line class="b" x1="374.999" y1="1500" x2="374.999" y2="1625"/><line class="b" x1="124.999" y1="1500" x2="249.999" y2="1500"/><line class="b" x1="124.999" y1="1625" x2="124.999" y2="1500"/><line class="b" x1="374.999" y1="1500" x2="249.999" y2="1500"/><line class="b" x1="124.999" y1="1625" x2="249.999" y2="1625"/><line class="b" x1="4499.999" y1="500" x2="4624.999" y2="500"/><line class="b" x1="4624.999" y1="625" x2="4624.999" y2="500"/><line class="b" x1="4499.999" y1="625" x2="4374.999" y2="625"/><line class="b" x1="4374.999" y1="500" x2="4374.999" y2="625"/><line class="b" x1="5499.999" y1="1500" x2="5499.999" y2="1375"/><line class="b" x1="5374.999" y1="1500" x2="5499.999" y2="1500"/><line class="b" x1="5374.999" y1="1500" x2="5249.999" y2="1500"/><line class="b" x1="5249.999" y1="1375" x2="5249.999" y2="1500"/><line class="b" x1="5374.999" y1="1375" x2="5499.999" y2="1375"/><line class="b" x1="5249.999" y1="1375" x2="5124.999" y2="1375"/><line class="b" x1="5374.999" y1="1375" x2="5374.999" y2="1250"/><line class="b" x1="5374.999" y1="1250" x2="5249.999" y2="1250"/><line class="b" x1="5124.999" y1="1375" x2="5124.999" y2="1250"/><line class="b" x1="5374.999" y1="1375" x2="5249.999" y2="1375"/><line class="b" x1="5249.999" y1="1125" x2="5249.999" y2="1250"/><line class="b" x1="5249.999" y1="1125" x2="5124.999" y2="1125"/><line class="b" x1="4999.999" y1="1250" x2="4999.999" y2="1125"/><line class="b" x1="4999.999" y1="1250" x2="5124.999" y2="1250"/><line class="b" x1="5249.999" y1="1250" x2="5124.999" y2="1250"/><line class="b" x1="5124.999" y1="1125" x2="5124.999" y2="1000"/><line class="b" x1="4999.999" y1="1000" x2="5124.999" y2="1000"/><line class="b" x1="4874.999" y1="1000" x2="4874.999" y2="1125"/><line class="b" x1="4999.999" y1="1125" x2="4874.999" y2="1125"/><line class="b" x1="4999.999" y1="1125" x2="5124.999" y2="1125"/><line class="b" x1="4999.999" y1="875" x2="4874.999" y2="875"/><line class="b" x1="4999.999" y1="1000" x2="4999.999" y2="875"/><line class="b" x1="4874.999" y1="1000" x2="4749.999" y2="1000"/><line class="b" x1="4749.999" y1="875" x2="4749.999" y2="1000"/><line class="b" x1="4999.999" y1="1000" x2="4874.999" y2="1000"/><line class="b" x1="3499.999" y1="2000" x2="3374.999" y2="2000"/><line class="b" x1="3249.999" y1="2000" x2="3374.999" y2="2000"/><line class="b" x1="3499.999" y1="1875" x2="3374.999" y2="1875"/><line class="b" x1="3499.999" y1="1875" x2="3499.999" y2="2000"/><line class="b" x1="3249.999" y1="2000" x2="3249.999" y2="1875"/><line class="b" x1="2749.999" y1="1750" x2="2624.999" y2="1750"/><line class="b" x1="2874.999" y1="1750" x2="2749.999" y2="1750"/><line class="b" x1="2624.999" y1="1875" x2="2749.999" y2="1875"/><line class="b" x1="2874.999" y1="1875" x2="2749.999" y2="1875"/><line class="b" x1="2374.999" y1="1750" x2="2499.999" y2="1750"/><line class="b" x1="2499.999" y1="1750" x2="2624.999" y2="1750"/><line class="b" x1="2499.999" y1="1875" x2="2624.999" y2="1875"/><line class="b" x1="2499.999" y1="1875" x2="2374.999" y2="1875"/><line class="b" x1="2624.999" y1="1875" x2="2624.999" y2="1750"/><line class="b" x1="2999.999" y1="1750" x2="3124.999" y2="1750"/><line class="b" x1="2874.999" y1="1750" x2="2999.999" y2="1750"/><line class="b" x1="2999.999" y1="1875" x2="3124.999" y2="1875"/><line class="b" x1="2999.999" y1="1875" x2="2874.999" y2="1875"/><line class="b" x1="2874.999" y1="1750" x2="2874.999" y2="1875"/><line class="b" x1="4874.999" y1="750" x2="4874.999" y2="875"/><line class="b" x1="4874.999" y1="750" x2="4749.999" y2="750"/><line class="b" x1="4749.999" y1="875" x2="4624.999" y2="875"/><line class="b" x1="4624.999" y1="875" x2="4624.999" y2="750"/><line class="b" x1="4874.999" y1="875" x2="4749.999" y2="875"/><line class="b" x1="3374.999" y1="1750" x2="3374.999" y2="1875"/><line class="b" x1="3374.999" y1="1750" x2="3249.999" y2="1750"/><line class="b" x1="3249.999" y1="1750" x2="3124.999" y2="1750"/><line class="b" x1="3124.999" y1="1875" x2="3249.999" y2="1875"/><line class="b" x1="3374.999" y1="1875" x2="3249.999" y2="1875"/><line class="b" x1="3124.999" y1="1875" x2="3124.999" y2="1750"/><line class="b" x1="4124.999" x2="3999.999"/><line class="b" x1="3874.999" x2="3999.999"/><line class="b" x1="3874.999" x2="3874.999" y2="125"/><line class="b" x1="4124.999" y1="125" x2="4124.999"/><line class="b" x1="4124.999" y1="125" x2="3999.999" y2="125"/><line class="b" x1="3624.999" y1="250" x2="3624.999" y2="375"/><line class="b" x1="3749.999" y1="250" x2="3624.999" y2="250"/><line class="b" x1="3874.999" y1="375" x2="3749.999" y2="375"/><line class="b" x1="3874.999" y1="375" x2="3874.999" y2="250"/><line class="b" x1="3749.999" y1="250" x2="3749.999" y2="125"/><line class="b" x1="3874.999" y1="125" x2="3749.999" y2="125"/><line class="b" x1="3999.999" y1="250" x2="3874.999" y2="250"/><line class="b" x1="3999.999" y1="250" x2="3999.999" y2="125"/><line class="b" x1="3874.999" y1="125" x2="3999.999" y2="125"/><line class="b" x1="3874.999" y1="250" x2="3749.999" y2="250"/><line class="b" x1="4749.999" y1="625" x2="4749.999" y2="750"/><line class="b" x1="4749.999" y1="625" x2="4624.999" y2="625"/><line class="b" x1="4499.999" y1="750" x2="4499.999" y2="625"/><line class="b" x1="4499.999" y1="750" x2="4624.999" y2="750"/><line class="b" x1="4499.999" y1="625" x2="4624.999" y2="625"/><line class="b" x1="4749.999" y1="750" x2="4624.999" y2="750"/><line class="b" x1="3499.999" y1="375" x2="3624.999" y2="375"/><line class="b" x1="3749.999" y1="375" x2="3749.999" y2="500"/><line class="b" x1="3499.999" y1="500" x2="3624.999" y2="500"/><line class="b" x1="3624.999" y1="500" x2="3749.999" y2="500"/><line class="b" x1="3749.999" y1="375" x2="3624.999" y2="375"/><line class="b" x1="3374.999" y1="500" x2="3249.999" y2="500"/><line class="b" x1="3374.999" y1="375" x2="3499.999" y2="375"/><line class="b" x1="3374.999" y1="375" x2="3249.999" y2="375"/><line class="b" x1="3499.999" y1="500" x2="3374.999" y2="500"/><line class="b" x1="3499.999" y1="500" x2="3499.999" y2="375"/><line class="b" x1="3124.999" y1="500" x2="3249.999" y2="500"/><line class="b" x1="2999.999" y1="375" x2="3124.999" y2="375"/><line class="b" x1="3249.999" y1="375" x2="3124.999" y2="375"/><line class="b" x1="2999.999" y1="500" x2="3124.999" y2="500"/><line class="b" x1="2999.999" y1="500" x2="2999.999" y2="375"/><line class="b" x1="3249.999" y1="375" x2="3249.999" y2="500"/><line class="b" x1="2249.999" y1="1750" x2="2374.999" y2="1750"/><line class="b" x1="2124.999" y1="1875" x2="2124.999" y2="1750"/><line class="b" x1="2124.999" y1="1875" x2="2249.999" y2="1875"/><line class="b" x1="2249.999" y1="1875" x2="2374.999" y2="1875"/><line class="b" x1="2124.999" y1="1750" x2="2249.999" y2="1750"/><line class="b" x1="2374.999" y1="1750" x2="2374.999" y2="1875"/><line class="b" x1="4499.999" y1="500" x2="4499.999" y2="375"/><line class="b" x1="4374.999" y1="375" x2="4249.999" y2="375"/><line class="b" x1="4249.999" y1="500" x2="4249.999" y2="375"/><line class="b" x1="4374.999" y1="500" x2="4249.999" y2="500"/><line class="b" x1="4499.999" y1="500" x2="4374.999" y2="500"/><line class="b" x1="4874.999" x2="4749.999"/><line class="b" x1="4749.999" x2="4624.999"/><line class="b" x1="4874.999" x2="4874.999" y2="125"/><line class="b" x1="4874.999" y1="125" x2="4749.999" y2="125"/><line class="b" x1="4624.999" y1="125" x2="4624.999"/><line class="b" x1="4499.999" y1="375" x2="4624.999" y2="375"/><line class="b" x1="4624.999" y1="375" x2="4624.999" y2="250"/><line class="b" x1="4374.999" y1="250" x2="4374.999" y2="375"/><line class="b" x1="4499.999" y1="250" x2="4374.999" y2="250"/><line class="b" x1="4499.999" y1="375" x2="4374.999" y2="375"/><line class="b" x1="4749.999" y1="250" x2="4624.999" y2="250"/><line class="b" x1="4749.999" y1="125" x2="4749.999" y2="250"/><line class="b" x1="4499.999" y1="250" x2="4499.999" y2="125"/><line class="b" x1="4499.999" y1="125" x2="4624.999" y2="125"/><line class="b" x1="4749.999" y1="125" x2="4624.999" y2="125"/><line class="b" x1="4499.999" y1="250" x2="4624.999" y2="250"/><polyline class="b" points="1804.237 750 1834.236 728.075 1862.735 687.5 1898.733 674.078"/><polyline class="b" points="1845.499 712.039 1825.236 674.078 1835.368 657.578"/><path class="b" d="M3152.7,500l34.8,62.5s13.2,8.41,15.2,16.41,36,18,36,18l52,28.09"/><polyline class="b" points="3187.499 562.5 3249.999 552.91 3290.699 562.5 3340.699 586.91"/><polyline class="b" points="3249.999 552.91 3320.699 530.91 3348.699 541.91"/><line class="b" x1="3290.699" y1="540.245" x2="3299.349" y2="518.91"/><polyline class="b" points="3812.499 1000 3846.699 974.91 3874.999 930.91"/><polyline class="b" points="3846.699 974.91 3830.699 948.91 3838.699 930.91"/><polyline class="b" points="4749.999 454.91 4708.699 426.91 4652.699 426.91 4632.699 440.91 4610.699 440.91"/><polyline class="b" points="4652.699 426.91 4610.699 412.91 4578.699 412.91 4542.699 398.91"/><polyline class="b" points="4687.499 426.91 4664.699 454.91 4634.699 472.91"/><polyline class="b" points="2286.699 1375 2249.999 1356.91 2249.999 1334.91 2268.349 1300.91 2212.699 1290.91"/><polyline class="b" points="2249.999 1334.91 2286.699 1332.955 2312.499 1312.5"/><polyline class="b" points="4328.699 1500 4312.499 1520.91 4312.499 1544.91 4278.699 1572.91 4202.699 1590.91"/><polyline class="b" points="4249.999 1579.707 4202.699 1562.5 4178.699 1571.103"/><polyline class="b" points="4312.499 1544.91 4304.699 1571.103 4276.699 1590.91"/><polyline class="b" points="4874.999 1076.91 4916.699 1090.91 4937.499 1083.91 4986.699 1090.91"/><polyline class="b" points="4937.499 1083.91 4966.699 1062.5 5024.699 1062.5"/><polyline class="b" points="4986.699 1062.5 5008.699 1036.91 4986.699 1022.91"/><polyline class="b" points="2562.499 125 2548.699 164.91 2562.499 210.91"/><path class="b" d="M2582.7,167.955l-27.1-23c27.1,23,69.4,11.5,69.4,11.5l17.7,31.045"/><polyline class="b" points="1562.499 1410.91 1624.999 1444.91 1664.699 1437.5 1716.699 1456.91 1749.999 1474.91"/><polyline class="b" points="1530.699 1466.91 1594.699 1466.91 1656.249 1466.91 1624.999 1444.91 1604.699 1410.91 1562.499 1388.91"/><polyline class="b" points="749.999 1427.91 812.499 1474.91 860.699 1442.91 904.699 1410.91"/><polyline class="b" points="716.699 1410.91 782.699 1410.91 804.699 1442.91 860.699 1442.91"/><path class="b" d="M294.7,156.91c6,0,80.3,44,80.3,44l35.7-13.41,46,13.41"/><polyline class="b" points="410.699 187.5 426.699 220.91 456.699 220.91"/><polyline class="b" points="352.059 187.5 342.699 156.91 322.699 125"/><polyline class="b" points="337.379 220.91 410.699 250 433.699 276.91 410.699 312.5 437.499 326.91"/><path class="b" d="M1388.7,273.91c2,7,26,38.59,26,38.59v28.41h32l32-42s-10-26-16-32-16-16.91-16-16.91"/><polyline class="b" points="1446.699 340.91 1446.699 312.5 1412.699 273.91"/></svg>