<svg id="a997016c-db65-4858-a20c-b74374785ce3" data-name="Layer 1" xmlns="http://www.w3.org/2000/svg" viewBox="0 0 3998.685 860.581">
  <title>ambigram</title>
  <g>
    <path d="M1362.179,860.581H1091.174A225.282,225.282,0,0,1,865.892,635.3V225.283A225.283,225.283,0,0,1,1091.174,0V134.881a90.5,90.5,0,0,0-90.4,90.4V635.3a90.5,90.5,0,0,0,90.4,90.4h271.005a90.5,90.5,0,0,0,90.4-90.4V225.283a90.5,90.5,0,0,0-90.4-90.4V0a225.283,225.283,0,0,1,225.282,225.283V635.3a225.282,225.282,0,0,1-225.282,225.282Z"/>
    <path d="M2636.506,0h271a225.28,225.28,0,0,1,225.282,225.282V635.3A225.282,225.282,0,0,1,2907.51,860.581V725.7a90.5,90.5,0,0,0,90.4-90.4V225.282a90.5,90.5,0,0,0-90.4-90.4h-271a90.5,90.5,0,0,0-90.4,90.4V635.3a90.5,90.5,0,0,0,90.4,90.4V860.581A225.282,225.282,0,0,1,2411.224,635.3V225.282A225.28,225.28,0,0,1,2636.506,0Z"/>
    <g>
      <g>
        <path d="M1935.858,725.7V860.58A225.283,225.283,0,0,1,1710.57,635.292V225.28a90.5,90.5,0,0,0-90.4-90.4V0a225.27,225.27,0,0,1,225.279,225.28V635.292A90.508,90.508,0,0,0,1935.858,725.7Z"/>
        <path d="M2157.19,725.7V860.58A225.283,225.283,0,0,1,1931.9,635.292V225.28a90.5,90.5,0,0,0-90.4-90.4V0a225.285,225.285,0,0,1,225.279,225.28V635.292A90.507,90.507,0,0,0,2157.19,725.7Z"/>
      </g>
      <path d="M2378.512,725.7V860.58a225.283,225.283,0,0,1-225.279-225.288V225.28a90.5,90.5,0,0,0-90.4-90.4V0a225.287,225.287,0,0,1,225.28,225.28V635.292A90.5,90.5,0,0,0,2378.512,725.7Z"/>
    </g>
    <path d="M833.181,725.7V860.58A193.722,193.722,0,0,1,639.464,666.863V556.557a58.9,58.9,0,0,0-58.827-58.826H252.543a58.9,58.9,0,0,0-58.755,58.826V666.863A58.9,58.9,0,0,0,252.624,725.7H578.9V860.58H252.624A193.722,193.722,0,0,1,58.907,666.863V556.557a192.25,192.25,0,0,1,46.759-126.221,192.279,192.279,0,0,1-46.84-126.321V193.708A58.9,58.9,0,0,0,0,134.882V0A192.444,192.444,0,0,1,136.977,56.732a192.445,192.445,0,0,1,56.731,136.976V304.015a58.9,58.9,0,0,0,58.835,58.835H580.637a58.9,58.9,0,0,0,58.755-58.835V193.708a58.9,58.9,0,0,0-58.835-58.826H254.27V0H580.557A193.709,193.709,0,0,1,774.273,193.708V304.015a192.244,192.244,0,0,1-46.759,126.221,192.269,192.269,0,0,1,46.831,126.321V666.863A58.9,58.9,0,0,0,833.181,725.7Z"/>
    <path d="M3998.685,725.7V860.58a193.722,193.722,0,0,1-193.717-193.717V556.557a58.9,58.9,0,0,0-58.835-58.826H3418.047a58.9,58.9,0,0,0-58.754,58.826V666.863a58.9,58.9,0,0,0,58.835,58.836h326.278V860.58H3418.128a193.722,193.722,0,0,1-193.717-193.717V556.557a192.25,192.25,0,0,1,46.759-126.221,192.284,192.284,0,0,1-46.84-126.321V193.708a58.9,58.9,0,0,0-58.826-58.826V0a193.709,193.709,0,0,1,193.708,193.708V304.015a58.9,58.9,0,0,0,58.835,58.835h328.086a58.9,58.9,0,0,0,58.754-58.835V193.708a58.9,58.9,0,0,0-58.826-58.826H3419.773V0h326.288a193.7,193.7,0,0,1,193.708,193.708V304.015a192.316,192.316,0,0,1-46.75,126.231,192.264,192.264,0,0,1,46.83,126.311V666.863A58.9,58.9,0,0,0,3998.685,725.7Z"/>
  </g>
</svg>
